<svg width="255" height="255" viewBox="0 0 255 255" fill="none" xmlns="http://www.w3.org/2000/svg">
<rect width="255" height="255" rx="10" fill="#F9F9F9"/>
<path d="M47.9823 168H50.3463V156.168L55.9383 168H57.0783L62.6583 156.168V167.988H65.0343V150.72H62.7423L56.5143 163.716L50.2503 150.72H47.9823V168ZM73.3244 168.36C74.6124 168.36 75.7324 168.072 76.6844 167.496C77.6364 166.912 78.3724 166.108 78.8924 165.084C79.4204 164.052 79.6844 162.86 79.6844 161.508C79.6844 160.172 79.4244 158.992 78.9044 157.968C78.3844 156.936 77.6484 156.132 76.6964 155.556C75.7444 154.972 74.6204 154.68 73.3244 154.68C72.0524 154.68 70.9404 154.968 69.9884 155.544C69.0364 156.12 68.2964 156.92 67.7684 157.944C67.2404 158.968 66.9764 160.156 66.9764 161.508C66.9764 162.844 67.2364 164.028 67.7564 165.06C68.2764 166.092 69.0084 166.9 69.9524 167.484C70.9044 168.068 72.0284 168.36 73.3244 168.36ZM73.3244 165.996C72.1164 165.996 71.2004 165.592 70.5764 164.784C69.9524 163.968 69.6404 162.876 69.6404 161.508C69.6404 160.188 69.9404 159.116 70.5404 158.292C71.1404 157.46 72.0684 157.044 73.3244 157.044C74.5484 157.044 75.4684 157.448 76.0844 158.256C76.7084 159.064 77.0204 160.148 77.0204 161.508C77.0204 162.836 76.7124 163.916 76.0964 164.748C75.4884 165.58 74.5644 165.996 73.3244 165.996ZM81.6094 168H83.8414V166.812C84.3134 167.3 84.8694 167.68 85.5094 167.952C86.1574 168.224 86.8894 168.36 87.7054 168.36C88.9134 168.36 89.9534 168.06 90.8254 167.46C91.7054 166.852 92.3814 166.032 92.8534 165C93.3334 163.968 93.5734 162.804 93.5734 161.508C93.5734 160.204 93.3334 159.04 92.8534 158.016C92.3734 156.984 91.6894 156.172 90.8014 155.58C89.9214 154.98 88.8734 154.68 87.6574 154.68C86.9374 154.68 86.2814 154.788 85.6894 155.004C85.0974 155.22 84.5774 155.528 84.1294 155.928V150.72H81.6094V168ZM87.3574 166.092C86.1254 166.092 85.2294 165.664 84.6694 164.808C84.1174 163.952 83.8414 162.852 83.8414 161.508C83.8414 160.164 84.1174 159.068 84.6694 158.22C85.2214 157.372 86.0894 156.948 87.2734 156.948C88.1054 156.948 88.7894 157.152 89.3254 157.56C89.8614 157.968 90.2574 158.516 90.5134 159.204C90.7774 159.892 90.9094 160.66 90.9094 161.508C90.9094 162.364 90.7814 163.14 90.5254 163.836C90.2694 164.524 89.8774 165.072 89.3494 165.48C88.8294 165.888 88.1654 166.092 87.3574 166.092ZM95.763 152.916H98.271V150.48H95.763V152.916ZM95.763 168H98.271V155.04H95.763V168ZM101.415 168H103.923V150.36H101.415V168ZM112.574 168.36C113.83 168.36 114.97 168.044 115.994 167.412C117.018 166.772 117.782 165.872 118.286 164.712L115.826 163.932C115.17 165.308 114.046 165.996 112.454 165.996C111.366 165.996 110.51 165.668 109.886 165.012C109.262 164.356 108.898 163.428 108.794 162.228H118.454C118.542 160.676 118.358 159.336 117.902 158.208C117.446 157.08 116.754 156.212 115.826 155.604C114.898 154.988 113.774 154.68 112.454 154.68C111.19 154.68 110.082 154.964 109.13 155.532C108.178 156.1 107.434 156.904 106.898 157.944C106.37 158.984 106.106 160.212 106.106 161.628C106.106 162.964 106.374 164.14 106.91 165.156C107.454 166.164 108.21 166.952 109.178 167.52C110.154 168.08 111.286 168.36 112.574 168.36ZM112.55 156.9C114.51 156.9 115.622 158.024 115.886 160.272H108.854C109.014 159.176 109.402 158.34 110.018 157.764C110.634 157.188 111.478 156.9 112.55 156.9ZM124.551 168H127.059V160.62H133.347V158.1H127.059V153.228H134.787V150.72H124.551V168ZM136.25 168H138.782V161.46C138.782 160.7 138.902 159.996 139.142 159.348C139.382 158.7 139.806 158.18 140.414 157.788C140.846 157.508 141.322 157.344 141.842 157.296C142.362 157.248 142.83 157.28 143.246 157.392V155.04C142.662 154.928 142.042 154.932 141.386 155.052C140.738 155.172 140.17 155.412 139.682 155.772C139.202 156.092 138.802 156.536 138.482 157.104V155.04H136.25V168ZM145.071 152.916H147.579V150.48H145.071V152.916ZM145.071 168H147.579V155.04H145.071V168ZM156.23 168.36C157.486 168.36 158.626 168.044 159.65 167.412C160.674 166.772 161.438 165.872 161.942 164.712L159.482 163.932C158.826 165.308 157.702 165.996 156.11 165.996C155.022 165.996 154.166 165.668 153.542 165.012C152.918 164.356 152.554 163.428 152.45 162.228H162.11C162.198 160.676 162.014 159.336 161.558 158.208C161.102 157.08 160.41 156.212 159.482 155.604C158.554 154.988 157.43 154.68 156.11 154.68C154.846 154.68 153.738 154.964 152.786 155.532C151.834 156.1 151.09 156.904 150.554 157.944C150.026 158.984 149.762 160.212 149.762 161.628C149.762 162.964 150.03 164.14 150.566 165.156C151.11 166.164 151.866 166.952 152.834 167.52C153.81 168.08 154.942 168.36 156.23 168.36ZM156.206 156.9C158.166 156.9 159.278 158.024 159.542 160.272H152.51C152.67 159.176 153.058 158.34 153.674 157.764C154.29 157.188 155.134 156.9 156.206 156.9ZM163.739 168H166.283V161.256C166.283 160.232 166.431 159.416 166.727 158.808C167.031 158.192 167.431 157.748 167.927 157.476C168.423 157.204 168.971 157.068 169.571 157.068C170.259 157.068 170.819 157.208 171.251 157.488C171.683 157.768 172.015 158.136 172.247 158.592C172.479 159.048 172.635 159.544 172.715 160.08C172.803 160.608 172.847 161.124 172.847 161.628V168H175.391V160.8C175.391 160.4 175.355 159.936 175.283 159.408C175.211 158.88 175.075 158.34 174.875 157.788C174.675 157.236 174.383 156.728 173.999 156.264C173.623 155.792 173.131 155.412 172.523 155.124C171.915 154.836 171.163 154.692 170.267 154.692C169.331 154.692 168.499 154.86 167.771 155.196C167.051 155.532 166.455 155.996 165.983 156.588V155.04H163.739V168ZM182.801 168.36C183.617 168.36 184.345 168.224 184.985 167.952C185.633 167.68 186.193 167.3 186.665 166.812V168H188.897V150.72H186.377V155.928C185.929 155.528 185.409 155.22 184.817 155.004C184.225 154.788 183.569 154.68 182.849 154.68C181.633 154.68 180.581 154.98 179.693 155.58C178.813 156.172 178.133 156.984 177.653 158.016C177.173 159.04 176.933 160.204 176.933 161.508C176.933 162.804 177.169 163.968 177.641 165C178.121 166.032 178.801 166.852 179.681 167.46C180.561 168.06 181.601 168.36 182.801 168.36ZM183.149 166.092C182.349 166.092 181.685 165.888 181.157 165.48C180.629 165.072 180.237 164.524 179.981 163.836C179.725 163.14 179.597 162.364 179.597 161.508C179.597 160.66 179.725 159.892 179.981 159.204C180.245 158.516 180.645 157.968 181.181 157.56C181.717 157.152 182.401 156.948 183.233 156.948C184.417 156.948 185.285 157.372 185.837 158.22C186.389 159.068 186.665 160.164 186.665 161.508C186.665 162.852 186.389 163.952 185.837 164.808C185.285 165.664 184.389 166.092 183.149 166.092ZM191.794 168H194.302V150.36H191.794V168ZM198.958 173.76H201.346L208.498 155.04H205.954L202.294 164.784L198.466 155.04H195.85L201.094 167.94L198.958 173.76Z" fill="black"/>
<path d="M133.183 109.15L132.933 108.95C132.841 108.887 132.74 108.836 132.633 108.8L132.333 108.667C132.063 108.61 131.783 108.622 131.518 108.7C131.254 108.779 131.013 108.922 130.817 109.117C130.67 109.279 130.551 109.465 130.467 109.667C130.341 109.97 130.307 110.305 130.371 110.627C130.434 110.95 130.591 111.247 130.823 111.48C131.055 111.713 131.35 111.873 131.672 111.939C131.994 112.005 132.329 111.974 132.633 111.85C132.833 111.753 133.018 111.63 133.183 111.483C133.415 111.249 133.571 110.951 133.634 110.628C133.696 110.305 133.661 109.97 133.533 109.667C133.45 109.474 133.332 109.299 133.183 109.15ZM138.667 85.3333H125.333C124.007 85.3333 122.736 85.8601 121.798 86.7978C120.86 87.7355 120.333 89.0072 120.333 90.3333V113.667C120.333 114.993 120.86 116.264 121.798 117.202C122.736 118.14 124.007 118.667 125.333 118.667H138.667C139.993 118.667 141.265 118.14 142.202 117.202C143.14 116.264 143.667 114.993 143.667 113.667V90.3333C143.667 89.0072 143.14 87.7355 142.202 86.7978C141.265 85.8601 139.993 85.3333 138.667 85.3333ZM140.333 113.667C140.333 114.109 140.158 114.533 139.845 114.845C139.533 115.158 139.109 115.333 138.667 115.333H125.333C124.891 115.333 124.468 115.158 124.155 114.845C123.842 114.533 123.667 114.109 123.667 113.667V90.3333C123.667 89.8913 123.842 89.4674 124.155 89.1548C124.468 88.8422 124.891 88.6666 125.333 88.6666H138.667C139.109 88.6666 139.533 88.8422 139.845 89.1548C140.158 89.4674 140.333 89.8913 140.333 90.3333V113.667Z" fill="black"/>
</svg>
