<svg width="255" height="255" viewBox="0 0 255 255" fill="none" xmlns="http://www.w3.org/2000/svg">
<rect width="255" height="255" rx="10" fill="#F9F9F9"/>
<path d="M53.7355 168H56.0995V156.168L61.6915 168H62.8315L68.4115 156.168V167.988H70.7875V150.72H68.4955L62.2675 163.716L56.0035 150.72H53.7355V168ZM79.0775 168.36C80.3655 168.36 81.4855 168.072 82.4375 167.496C83.3895 166.912 84.1255 166.108 84.6455 165.084C85.1735 164.052 85.4375 162.86 85.4375 161.508C85.4375 160.172 85.1775 158.992 84.6575 157.968C84.1375 156.936 83.4015 156.132 82.4495 155.556C81.4975 154.972 80.3735 154.68 79.0775 154.68C77.8055 154.68 76.6935 154.968 75.7415 155.544C74.7895 156.12 74.0495 156.92 73.5215 157.944C72.9935 158.968 72.7295 160.156 72.7295 161.508C72.7295 162.844 72.9895 164.028 73.5095 165.06C74.0295 166.092 74.7615 166.9 75.7055 167.484C76.6575 168.068 77.7815 168.36 79.0775 168.36ZM79.0775 165.996C77.8695 165.996 76.9535 165.592 76.3295 164.784C75.7055 163.968 75.3935 162.876 75.3935 161.508C75.3935 160.188 75.6935 159.116 76.2935 158.292C76.8935 157.46 77.8215 157.044 79.0775 157.044C80.3015 157.044 81.2215 157.448 81.8375 158.256C82.4615 159.064 82.7735 160.148 82.7735 161.508C82.7735 162.836 82.4655 163.916 81.8495 164.748C81.2415 165.58 80.3175 165.996 79.0775 165.996ZM92.5225 168.36C93.3385 168.36 94.0665 168.224 94.7065 167.952C95.3545 167.68 95.9145 167.3 96.3865 166.812V168H98.6185V150.72H96.0985V155.928C95.6505 155.528 95.1305 155.22 94.5385 155.004C93.9465 154.788 93.2905 154.68 92.5705 154.68C91.3545 154.68 90.3025 154.98 89.4145 155.58C88.5345 156.172 87.8545 156.984 87.3745 158.016C86.8945 159.04 86.6545 160.204 86.6545 161.508C86.6545 162.804 86.8905 163.968 87.3625 165C87.8425 166.032 88.5225 166.852 89.4025 167.46C90.2825 168.06 91.3225 168.36 92.5225 168.36ZM92.8705 166.092C92.0705 166.092 91.4065 165.888 90.8785 165.48C90.3505 165.072 89.9585 164.524 89.7025 163.836C89.4465 163.14 89.3185 162.364 89.3185 161.508C89.3185 160.66 89.4465 159.892 89.7025 159.204C89.9665 158.516 90.3665 157.968 90.9025 157.56C91.4385 157.152 92.1225 156.948 92.9545 156.948C94.1385 156.948 95.0065 157.372 95.5585 158.22C96.1105 159.068 96.3865 160.164 96.3865 161.508C96.3865 162.852 96.1105 163.952 95.5585 164.808C95.0065 165.664 94.1105 166.092 92.8705 166.092ZM107.024 168.36C108.28 168.36 109.42 168.044 110.444 167.412C111.468 166.772 112.232 165.872 112.736 164.712L110.276 163.932C109.62 165.308 108.496 165.996 106.904 165.996C105.816 165.996 104.96 165.668 104.336 165.012C103.712 164.356 103.348 163.428 103.244 162.228H112.904C112.992 160.676 112.808 159.336 112.352 158.208C111.896 157.08 111.204 156.212 110.276 155.604C109.348 154.988 108.224 154.68 106.904 154.68C105.64 154.68 104.532 154.964 103.58 155.532C102.628 156.1 101.884 156.904 101.348 157.944C100.82 158.984 100.556 160.212 100.556 161.628C100.556 162.964 100.824 164.14 101.36 165.156C101.904 166.164 102.66 166.952 103.628 167.52C104.604 168.08 105.736 168.36 107.024 168.36ZM107 156.9C108.96 156.9 110.072 158.024 110.336 160.272H103.304C103.464 159.176 103.852 158.34 104.468 157.764C105.084 157.188 105.928 156.9 107 156.9ZM114.896 168H117.428V161.46C117.428 160.7 117.548 159.996 117.788 159.348C118.028 158.7 118.452 158.18 119.06 157.788C119.492 157.508 119.968 157.344 120.488 157.296C121.008 157.248 121.476 157.28 121.892 157.392V155.04C121.308 154.928 120.688 154.932 120.032 155.052C119.384 155.172 118.816 155.412 118.328 155.772C117.848 156.092 117.448 156.536 117.128 157.104V155.04H114.896V168ZM123.466 168H126.01V161.256C126.01 160.232 126.158 159.416 126.454 158.808C126.758 158.192 127.158 157.748 127.654 157.476C128.15 157.204 128.698 157.068 129.298 157.068C129.986 157.068 130.546 157.208 130.978 157.488C131.41 157.768 131.742 158.136 131.974 158.592C132.206 159.048 132.362 159.544 132.442 160.08C132.53 160.608 132.574 161.124 132.574 161.628V168H135.118V160.8C135.118 160.4 135.082 159.936 135.01 159.408C134.938 158.88 134.802 158.34 134.602 157.788C134.402 157.236 134.11 156.728 133.726 156.264C133.35 155.792 132.858 155.412 132.25 155.124C131.642 154.836 130.89 154.692 129.994 154.692C129.058 154.692 128.226 154.86 127.498 155.196C126.778 155.532 126.182 155.996 125.71 156.588V155.04H123.466V168ZM141.648 168H147.06C147.22 168 147.516 167.996 147.948 167.988C148.388 167.98 148.808 167.948 149.208 167.892C150.56 167.716 151.696 167.232 152.616 166.44C153.544 165.64 154.244 164.628 154.716 163.404C155.188 162.172 155.424 160.824 155.424 159.36C155.424 157.888 155.188 156.54 154.716 155.316C154.244 154.084 153.544 153.072 152.616 152.28C151.696 151.48 150.56 150.996 149.208 150.828C148.808 150.772 148.388 150.74 147.948 150.732C147.516 150.724 147.22 150.72 147.06 150.72H141.648V168ZM144.216 165.612V153.108H147.06C147.324 153.108 147.644 153.116 148.02 153.132C148.404 153.14 148.74 153.172 149.028 153.228C149.892 153.388 150.596 153.764 151.14 154.356C151.692 154.94 152.1 155.668 152.364 156.54C152.628 157.404 152.76 158.344 152.76 159.36C152.76 160.344 152.632 161.272 152.376 162.144C152.12 163.016 151.716 163.752 151.164 164.352C150.62 164.944 149.908 165.324 149.028 165.492C148.74 165.548 148.408 165.584 148.032 165.6C147.664 165.608 147.34 165.612 147.06 165.612H144.216ZM163.266 168.36C164.522 168.36 165.662 168.044 166.686 167.412C167.71 166.772 168.474 165.872 168.978 164.712L166.518 163.932C165.862 165.308 164.738 165.996 163.146 165.996C162.058 165.996 161.202 165.668 160.578 165.012C159.954 164.356 159.59 163.428 159.486 162.228H169.146C169.234 160.676 169.05 159.336 168.594 158.208C168.138 157.08 167.446 156.212 166.518 155.604C165.59 154.988 164.466 154.68 163.146 154.68C161.882 154.68 160.774 154.964 159.822 155.532C158.87 156.1 158.126 156.904 157.59 157.944C157.062 158.984 156.798 160.212 156.798 161.628C156.798 162.964 157.066 164.14 157.602 165.156C158.146 166.164 158.902 166.952 159.87 167.52C160.846 168.08 161.978 168.36 163.266 168.36ZM163.242 156.9C165.202 156.9 166.314 158.024 166.578 160.272H159.546C159.706 159.176 160.094 158.34 160.71 157.764C161.326 157.188 162.17 156.9 163.242 156.9ZM176.095 168.348C177.735 168.348 179.019 167.984 179.947 167.256C180.883 166.528 181.351 165.524 181.351 164.244C181.351 163.572 181.211 163.004 180.931 162.54C180.659 162.076 180.203 161.676 179.563 161.34C178.923 160.996 178.059 160.684 176.971 160.404C175.955 160.148 175.187 159.928 174.667 159.744C174.155 159.552 173.807 159.36 173.623 159.168C173.439 158.968 173.347 158.724 173.347 158.436C173.347 157.94 173.583 157.552 174.055 157.272C174.527 156.984 175.143 156.856 175.903 156.888C176.695 156.92 177.339 157.12 177.835 157.488C178.331 157.848 178.623 158.336 178.711 158.952L181.279 158.484C181.135 157.332 180.571 156.412 179.587 155.724C178.603 155.028 177.367 154.68 175.879 154.68C174.359 154.68 173.139 155.036 172.219 155.748C171.299 156.452 170.839 157.392 170.839 158.568C170.839 159.2 170.975 159.74 171.247 160.188C171.527 160.628 171.991 161.012 172.639 161.34C173.295 161.668 174.179 161.98 175.291 162.276C176.307 162.548 177.063 162.776 177.559 162.96C178.055 163.144 178.379 163.34 178.531 163.548C178.691 163.748 178.771 164.012 178.771 164.34C178.771 164.9 178.547 165.34 178.099 165.66C177.659 165.98 177.047 166.14 176.263 166.14C175.399 166.14 174.675 165.948 174.091 165.564C173.515 165.18 173.147 164.648 172.987 163.968L170.419 164.364C170.643 165.628 171.251 166.608 172.243 167.304C173.235 168 174.519 168.348 176.095 168.348ZM183.546 152.916H186.054V150.48H183.546V152.916ZM183.546 168H186.054V155.04H183.546V168ZM194.105 168.36C194.841 168.36 195.505 168.248 196.097 168.024C196.689 167.808 197.213 167.5 197.669 167.1V168.324C197.685 169.436 197.397 170.276 196.805 170.844C196.221 171.42 195.393 171.708 194.321 171.708C193.745 171.708 193.197 171.58 192.677 171.324C192.157 171.068 191.757 170.664 191.477 170.112L189.161 171.288C189.689 172.208 190.417 172.908 191.345 173.388C192.273 173.876 193.257 174.12 194.297 174.12C195.809 174.12 197.073 173.804 198.089 173.172C199.105 172.548 199.749 171.58 200.021 170.268C200.085 169.964 200.129 169.652 200.153 169.332C200.177 169.02 200.189 168.692 200.189 168.348V155.04H197.969V156.204C197.505 155.724 196.953 155.352 196.313 155.088C195.673 154.816 194.953 154.68 194.153 154.68C192.937 154.68 191.885 154.98 190.997 155.58C190.117 156.172 189.437 156.984 188.957 158.016C188.477 159.04 188.237 160.204 188.237 161.508C188.237 162.804 188.473 163.968 188.945 165C189.425 166.032 190.105 166.852 190.985 167.46C191.865 168.06 192.905 168.36 194.105 168.36ZM194.453 166.092C193.653 166.092 192.989 165.888 192.461 165.48C191.933 165.072 191.541 164.524 191.285 163.836C191.029 163.14 190.901 162.364 190.901 161.508C190.901 160.66 191.029 159.892 191.285 159.204C191.549 158.516 191.949 157.968 192.485 157.56C193.021 157.152 193.705 156.948 194.537 156.948C195.721 156.948 196.589 157.372 197.141 158.22C197.693 159.068 197.969 160.164 197.969 161.508C197.969 162.852 197.693 163.952 197.141 164.808C196.589 165.664 195.693 166.092 194.453 166.092ZM202.847 168H205.391V161.256C205.391 160.232 205.539 159.416 205.835 158.808C206.139 158.192 206.539 157.748 207.035 157.476C207.531 157.204 208.079 157.068 208.679 157.068C209.367 157.068 209.927 157.208 210.359 157.488C210.791 157.768 211.123 158.136 211.355 158.592C211.587 159.048 211.743 159.544 211.823 160.08C211.911 160.608 211.955 161.124 211.955 161.628V168H214.499V160.8C214.499 160.4 214.463 159.936 214.391 159.408C214.319 158.88 214.183 158.34 213.983 157.788C213.783 157.236 213.491 156.728 213.107 156.264C212.731 155.792 212.239 155.412 211.631 155.124C211.023 154.836 210.271 154.692 209.375 154.692C208.439 154.692 207.607 154.86 206.879 155.196C206.159 155.532 205.563 155.996 205.091 156.588V155.04H202.847V168Z" fill="black"/>
<path d="M149.122 96.3041C148.963 95.9881 148.719 95.7223 148.418 95.5362C148.117 95.3501 147.77 95.2511 147.416 95.25H137.833V83.75C137.854 83.3296 137.735 82.9142 137.496 82.5678C137.257 82.2214 136.911 81.9633 136.51 81.8333C136.126 81.7067 135.711 81.7053 135.325 81.8292C134.939 81.9532 134.603 82.1962 134.364 82.5233L119.03 103.607C118.838 103.884 118.723 104.208 118.696 104.544C118.669 104.881 118.732 105.219 118.877 105.523C119.011 105.872 119.244 106.173 119.547 106.391C119.85 106.609 120.21 106.734 120.583 106.75H130.166V118.25C130.167 118.654 130.295 119.048 130.532 119.375C130.77 119.702 131.105 119.946 131.489 120.071C131.681 120.131 131.881 120.163 132.083 120.167C132.385 120.167 132.684 120.097 132.954 119.96C133.223 119.823 133.457 119.625 133.635 119.381L148.969 98.2975C149.175 98.0115 149.299 97.6741 149.326 97.3224C149.353 96.9707 149.282 96.6183 149.122 96.3041ZM134 112.347V104.833C134 104.325 133.798 103.837 133.438 103.478C133.079 103.119 132.591 102.917 132.083 102.917H124.416L134 89.6533V97.1666C134 97.675 134.202 98.1625 134.561 98.5219C134.92 98.8814 135.408 99.0833 135.916 99.0833H143.583L134 112.347Z" fill="black"/>
</svg>
