<svg width="255" height="255" viewBox="0 0 255 255" fill="none" xmlns="http://www.w3.org/2000/svg">
<rect width="255" height="255" rx="10" fill="#F9F9F9"/>
<path d="M66.0701 168.36C68.0621 168.36 69.7101 167.856 71.0141 166.848C72.3261 165.84 73.2381 164.484 73.7501 162.78L71.2061 162.096C70.8621 163.304 70.2621 164.252 69.4061 164.94C68.5501 165.628 67.4381 165.972 66.0701 165.972C64.8461 165.972 63.8221 165.696 62.9981 165.144C62.1821 164.592 61.5661 163.82 61.1501 162.828C60.7421 161.836 60.5421 160.68 60.5501 159.36C60.5581 158.04 60.7661 156.884 61.1741 155.892C61.5821 154.9 62.1941 154.128 63.0101 153.576C63.8261 153.024 64.8461 152.748 66.0701 152.748C67.4381 152.748 68.5501 153.092 69.4061 153.78C70.2621 154.468 70.8621 155.416 71.2061 156.624L73.7501 155.94C73.2381 154.236 72.3261 152.88 71.0141 151.872C69.7101 150.864 68.0621 150.36 66.0701 150.36C64.3421 150.36 62.8701 150.74 61.6541 151.5C60.4381 152.26 59.5061 153.316 58.8581 154.668C58.2181 156.012 57.8981 157.576 57.8981 159.36C57.8981 161.144 58.2181 162.712 58.8581 164.064C59.5061 165.408 60.4381 166.46 61.6541 167.22C62.8701 167.98 64.3421 168.36 66.0701 168.36ZM81.3174 168.36C82.6054 168.36 83.7254 168.072 84.6774 167.496C85.6294 166.912 86.3654 166.108 86.8854 165.084C87.4134 164.052 87.6774 162.86 87.6774 161.508C87.6774 160.172 87.4174 158.992 86.8974 157.968C86.3774 156.936 85.6414 156.132 84.6894 155.556C83.7374 154.972 82.6134 154.68 81.3174 154.68C80.0454 154.68 78.9334 154.968 77.9814 155.544C77.0294 156.12 76.2894 156.92 75.7614 157.944C75.2334 158.968 74.9694 160.156 74.9694 161.508C74.9694 162.844 75.2294 164.028 75.7494 165.06C76.2694 166.092 77.0014 166.9 77.9454 167.484C78.8974 168.068 80.0214 168.36 81.3174 168.36ZM81.3174 165.996C80.1094 165.996 79.1934 165.592 78.5694 164.784C77.9454 163.968 77.6334 162.876 77.6334 161.508C77.6334 160.188 77.9334 159.116 78.5334 158.292C79.1334 157.46 80.0614 157.044 81.3174 157.044C82.5414 157.044 83.4614 157.448 84.0774 158.256C84.7014 159.064 85.0134 160.148 85.0134 161.508C85.0134 162.836 84.7054 163.916 84.0894 164.748C83.4814 165.58 82.5574 165.996 81.3174 165.996ZM89.8544 168H92.3624V150.36H89.8544V168ZM100.894 168.36C102.182 168.36 103.302 168.072 104.254 167.496C105.206 166.912 105.942 166.108 106.462 165.084C106.99 164.052 107.254 162.86 107.254 161.508C107.254 160.172 106.994 158.992 106.474 157.968C105.954 156.936 105.218 156.132 104.266 155.556C103.314 154.972 102.19 154.68 100.894 154.68C99.6219 154.68 98.5099 154.968 97.5579 155.544C96.6059 156.12 95.8659 156.92 95.3379 157.944C94.8099 158.968 94.5459 160.156 94.5459 161.508C94.5459 162.844 94.8059 164.028 95.3259 165.06C95.8459 166.092 96.5779 166.9 97.5219 167.484C98.4739 168.068 99.5979 168.36 100.894 168.36ZM100.894 165.996C99.6859 165.996 98.7699 165.592 98.1459 164.784C97.5219 163.968 97.2099 162.876 97.2099 161.508C97.2099 160.188 97.5099 159.116 98.1099 158.292C98.7099 157.46 99.6379 157.044 100.894 157.044C102.118 157.044 103.038 157.448 103.654 158.256C104.278 159.064 104.59 160.148 104.59 161.508C104.59 162.836 104.282 163.916 103.666 164.748C103.058 165.58 102.134 165.996 100.894 165.996ZM109.191 168H111.723V161.46C111.723 160.7 111.843 159.996 112.083 159.348C112.323 158.7 112.747 158.18 113.355 157.788C113.787 157.508 114.263 157.344 114.783 157.296C115.303 157.248 115.771 157.28 116.187 157.392V155.04C115.603 154.928 114.983 154.932 114.327 155.052C113.679 155.172 113.111 155.412 112.623 155.772C112.143 156.092 111.743 156.536 111.423 157.104V155.04H109.191V168ZM121.877 168H124.385V161.796H128.861C129.021 161.796 129.225 161.788 129.473 161.772C129.729 161.756 129.969 161.732 130.193 161.7C131.633 161.468 132.713 160.852 133.433 159.852C134.161 158.852 134.525 157.652 134.525 156.252C134.525 154.852 134.165 153.652 133.445 152.652C132.725 151.652 131.641 151.04 130.193 150.816C129.969 150.776 129.733 150.752 129.485 150.744C129.237 150.728 129.029 150.72 128.861 150.72H121.877V168ZM124.385 159.42V153.084H128.765C128.925 153.084 129.101 153.092 129.293 153.108C129.493 153.124 129.681 153.156 129.857 153.204C130.625 153.38 131.169 153.772 131.489 154.38C131.809 154.988 131.969 155.612 131.969 156.252C131.969 156.884 131.809 157.508 131.489 158.124C131.169 158.732 130.625 159.128 129.857 159.312C129.681 159.352 129.493 159.38 129.293 159.396C129.101 159.412 128.925 159.42 128.765 159.42H124.385ZM139.485 168.36C141.549 168.36 143.105 167.612 144.153 166.116V168H146.373V160.02C146.373 159.476 146.349 158.968 146.301 158.496C146.253 158.024 146.125 157.576 145.917 157.152C145.517 156.296 144.885 155.672 144.021 155.28C143.165 154.88 142.157 154.68 140.997 154.68C139.501 154.68 138.301 155.008 137.397 155.664C136.493 156.32 135.885 157.204 135.573 158.316L137.913 159.036C138.137 158.316 138.533 157.796 139.101 157.476C139.669 157.156 140.293 156.996 140.973 156.996C141.981 156.996 142.709 157.212 143.157 157.644C143.613 158.068 143.861 158.728 143.901 159.624C142.845 159.768 141.813 159.92 140.805 160.08C139.797 160.232 138.917 160.416 138.165 160.632C137.165 160.952 136.405 161.428 135.885 162.06C135.365 162.692 135.105 163.496 135.105 164.472C135.105 165.176 135.269 165.824 135.597 166.416C135.933 167 136.425 167.472 137.073 167.832C137.729 168.184 138.533 168.36 139.485 168.36ZM139.929 166.308C139.129 166.308 138.537 166.124 138.153 165.756C137.777 165.388 137.589 164.952 137.589 164.448C137.589 163.936 137.757 163.532 138.093 163.236C138.437 162.94 138.865 162.704 139.377 162.528C139.921 162.368 140.561 162.228 141.297 162.108C142.041 161.988 142.901 161.856 143.877 161.712C143.869 162.016 143.849 162.356 143.817 162.732C143.785 163.108 143.717 163.444 143.613 163.74C143.517 164.164 143.313 164.572 143.001 164.964C142.697 165.356 142.285 165.68 141.765 165.936C141.253 166.184 140.641 166.308 139.929 166.308ZM149.029 168H151.537V150.36H149.029V168ZM160.189 168.36C161.445 168.36 162.585 168.044 163.609 167.412C164.633 166.772 165.397 165.872 165.901 164.712L163.441 163.932C162.785 165.308 161.661 165.996 160.069 165.996C158.981 165.996 158.125 165.668 157.501 165.012C156.877 164.356 156.513 163.428 156.409 162.228H166.069C166.157 160.676 165.973 159.336 165.517 158.208C165.061 157.08 164.369 156.212 163.441 155.604C162.513 154.988 161.389 154.68 160.069 154.68C158.805 154.68 157.697 154.964 156.745 155.532C155.793 156.1 155.049 156.904 154.513 157.944C153.985 158.984 153.721 160.212 153.721 161.628C153.721 162.964 153.989 164.14 154.525 165.156C155.069 166.164 155.825 166.952 156.793 167.52C157.769 168.08 158.901 168.36 160.189 168.36ZM160.165 156.9C162.125 156.9 163.237 158.024 163.501 160.272H156.469C156.629 159.176 157.017 158.34 157.633 157.764C158.249 157.188 159.093 156.9 160.165 156.9ZM175.477 168V165.876C174.629 166.004 173.889 166.032 173.257 165.96C172.633 165.88 172.177 165.596 171.889 165.108C171.737 164.844 171.653 164.52 171.637 164.136C171.629 163.752 171.625 163.3 171.625 162.78V157.056H175.477V155.04H171.625V151.44H169.105V155.04H166.621V157.056H169.105V162.9C169.105 163.604 169.113 164.236 169.129 164.796C169.153 165.348 169.305 165.892 169.585 166.428C169.905 167.028 170.373 167.468 170.989 167.748C171.605 168.028 172.305 168.18 173.089 168.204C173.873 168.228 174.669 168.16 175.477 168ZM184.177 168V165.876C183.329 166.004 182.589 166.032 181.957 165.96C181.333 165.88 180.877 165.596 180.589 165.108C180.437 164.844 180.353 164.52 180.337 164.136C180.329 163.752 180.325 163.3 180.325 162.78V157.056H184.177V155.04H180.325V151.44H177.805V155.04H175.321V157.056H177.805V162.9C177.805 163.604 177.813 164.236 177.829 164.796C177.853 165.348 178.005 165.892 178.285 166.428C178.605 167.028 179.073 167.468 179.689 167.748C180.305 168.028 181.005 168.18 181.789 168.204C182.573 168.228 183.369 168.16 184.177 168ZM191.93 168.36C193.186 168.36 194.326 168.044 195.35 167.412C196.374 166.772 197.138 165.872 197.642 164.712L195.182 163.932C194.526 165.308 193.402 165.996 191.81 165.996C190.722 165.996 189.866 165.668 189.242 165.012C188.618 164.356 188.254 163.428 188.15 162.228H197.81C197.898 160.676 197.714 159.336 197.258 158.208C196.802 157.08 196.11 156.212 195.182 155.604C194.254 154.988 193.13 154.68 191.81 154.68C190.546 154.68 189.438 154.964 188.486 155.532C187.534 156.1 186.79 156.904 186.254 157.944C185.726 158.984 185.462 160.212 185.462 161.628C185.462 162.964 185.73 164.14 186.266 165.156C186.81 166.164 187.566 166.952 188.534 167.52C189.51 168.08 190.642 168.36 191.93 168.36ZM191.906 156.9C193.866 156.9 194.978 158.024 195.242 160.272H188.21C188.37 159.176 188.758 158.34 189.374 157.764C189.99 157.188 190.834 156.9 191.906 156.9Z" fill="black"/>
<path d="M119.367 106.9C119.056 107.212 118.882 107.635 118.882 108.075C118.882 108.515 119.056 108.938 119.367 109.25C119.522 109.406 119.706 109.53 119.909 109.615C120.112 109.699 120.33 109.743 120.55 109.743C120.77 109.743 120.988 109.699 121.191 109.615C121.394 109.53 121.579 109.406 121.733 109.25C122.044 108.938 122.218 108.515 122.218 108.075C122.218 107.635 122.044 107.212 121.733 106.9C121.579 106.744 121.394 106.62 121.191 106.535C120.988 106.451 120.77 106.407 120.55 106.407C120.33 106.407 120.112 106.451 119.909 106.535C119.706 106.62 119.522 106.744 119.367 106.9ZM119.367 92.75C119.056 93.0623 118.882 93.4847 118.882 93.925C118.882 94.3653 119.056 94.7877 119.367 95.1C119.522 95.2562 119.706 95.3802 119.909 95.4648C120.112 95.5494 120.33 95.593 120.55 95.593C120.77 95.593 120.988 95.5494 121.191 95.4648C121.394 95.3802 121.579 95.2562 121.733 95.1C122.044 94.7877 122.218 94.3653 122.218 93.925C122.218 93.4847 122.044 93.0623 121.733 92.75C121.579 92.5938 121.394 92.4698 121.191 92.3852C120.988 92.3006 120.77 92.257 120.55 92.257C120.33 92.257 120.112 92.3006 119.909 92.3852C119.706 92.4698 119.522 92.5938 119.367 92.75ZM127.617 109.417C127.287 109.417 126.965 109.514 126.691 109.698C126.417 109.881 126.203 110.141 126.077 110.446C125.951 110.75 125.918 111.085 125.982 111.408C126.046 111.732 126.205 112.029 126.438 112.262C126.671 112.495 126.968 112.654 127.292 112.718C127.615 112.782 127.95 112.749 128.255 112.623C128.559 112.497 128.819 112.283 129.003 112.009C129.186 111.735 129.283 111.413 129.283 111.083C129.295 110.858 129.26 110.632 129.181 110.42C129.103 110.208 128.982 110.014 128.826 109.851C128.67 109.687 128.482 109.557 128.274 109.468C128.067 109.379 127.843 109.333 127.617 109.333V109.417ZM117.617 99.4167C117.287 99.4167 116.965 99.5144 116.691 99.6976C116.417 99.8807 116.203 100.141 116.077 100.446C115.951 100.75 115.918 101.085 115.982 101.408C116.046 101.732 116.205 102.029 116.438 102.262C116.671 102.495 116.968 102.654 117.292 102.718C117.615 102.782 117.95 102.749 118.255 102.623C118.559 102.497 118.819 102.283 119.003 102.009C119.186 101.735 119.283 101.413 119.283 101.083C119.295 100.858 119.26 100.632 119.181 100.42C119.103 100.208 118.982 100.014 118.826 99.8506C118.67 99.6869 118.482 99.5566 118.274 99.4677C118.067 99.3788 117.843 99.3331 117.617 99.3333V99.4167ZM127.617 89.4167C127.287 89.4167 126.965 89.5144 126.691 89.6976C126.417 89.8807 126.203 90.141 126.077 90.4455C125.951 90.7501 125.918 91.0852 125.982 91.4085C126.046 91.7318 126.205 92.0288 126.438 92.2619C126.671 92.4949 126.968 92.6537 127.292 92.718C127.615 92.7823 127.95 92.7493 128.255 92.6231C128.559 92.497 128.819 92.2834 129.003 92.0093C129.186 91.7352 129.283 91.413 129.283 91.0833C129.295 90.8576 129.26 90.6318 129.181 90.4199C129.103 90.208 128.982 90.0143 128.826 89.8506C128.67 89.6869 128.482 89.5566 128.274 89.4677C128.067 89.3788 127.843 89.3331 127.617 89.3333V89.4167ZM133.517 92.8333C133.283 93.066 133.123 93.363 133.058 93.6866C132.993 94.0101 133.025 94.3457 133.151 94.6509C133.277 94.956 133.491 95.2169 133.765 95.4004C134.039 95.584 134.362 95.682 134.692 95.682C135.022 95.682 135.345 95.584 135.619 95.4004C135.893 95.2169 136.107 94.956 136.233 94.6509C136.358 94.3457 136.391 94.0101 136.326 93.6866C136.261 93.363 136.101 93.066 135.867 92.8333C135.566 92.5116 135.149 92.3222 134.709 92.3066C134.269 92.291 133.84 92.4504 133.517 92.75V92.8333ZM144.017 92.8333C142.493 89.7872 140.151 87.2257 137.253 85.4362C134.355 83.6466 131.016 82.6998 127.609 82.7018C124.203 82.7039 120.865 83.6547 117.969 85.4477C115.074 87.2407 112.734 89.805 111.214 92.8529C109.694 95.9009 109.053 99.3121 109.363 102.704C109.673 106.096 110.922 109.334 112.97 112.056C115.017 114.778 117.782 116.876 120.955 118.114C124.128 119.352 127.584 119.682 130.933 119.067C131.776 118.908 132.578 118.583 133.294 118.111C134.009 117.639 134.623 117.029 135.1 116.317C135.614 115.542 135.969 114.673 136.143 113.761C136.318 112.848 136.309 111.909 136.117 111C136.012 110.451 135.956 109.893 135.95 109.333C135.957 107.718 136.434 106.14 137.322 104.791C138.209 103.442 139.47 102.379 140.95 101.733C141.748 101.376 142.465 100.859 143.055 100.214C143.646 99.5689 144.098 98.8098 144.383 97.9833C144.672 97.1388 144.789 96.2449 144.726 95.3545C144.663 94.4641 144.422 93.5954 144.017 92.8V92.8333ZM141.183 96.9C141.041 97.2989 140.82 97.6652 140.534 97.9772C140.248 98.2892 139.902 98.5407 139.517 98.7167C137.467 99.6343 135.725 101.124 134.501 103.008C133.277 104.891 132.623 107.087 132.617 109.333C132.619 110.117 132.697 110.898 132.85 111.667C132.952 112.136 132.959 112.622 132.87 113.094C132.781 113.566 132.599 114.016 132.333 114.417C132.109 114.767 131.814 115.067 131.466 115.297C131.119 115.526 130.727 115.681 130.317 115.75C129.427 115.917 128.523 116.001 127.617 116C125.607 116.001 123.618 115.598 121.767 114.815C119.916 114.032 118.241 112.886 116.842 111.443C115.443 110 114.348 108.291 113.622 106.417C112.896 104.543 112.554 102.542 112.617 100.533C112.746 96.788 114.265 93.2249 116.878 90.5383C119.491 87.8516 123.01 86.2338 126.75 86H127.6C130.393 86.0007 133.13 86.7812 135.504 88.2534C137.877 89.7257 139.792 91.8314 141.033 94.3333C141.416 95.125 141.469 96.0355 141.183 96.8667V96.9ZM127.617 99.3333C127.287 99.3333 126.965 99.4311 126.691 99.6142C126.417 99.7974 126.203 100.058 126.077 100.362C125.951 100.667 125.918 101.002 125.982 101.325C126.046 101.648 126.205 101.945 126.438 102.179C126.671 102.412 126.968 102.57 127.292 102.635C127.615 102.699 127.95 102.666 128.255 102.54C128.559 102.414 128.819 102.2 129.003 101.926C129.186 101.652 129.283 101.33 129.283 101C129.283 100.558 129.108 100.134 128.795 99.8215C128.483 99.5089 128.059 99.3333 127.617 99.3333Z" fill="black"/>
</svg>
