<svg width="255" height="255" viewBox="0 0 255 255" fill="none" xmlns="http://www.w3.org/2000/svg">
<rect width="255" height="255" rx="10" fill="#F9F9F9"/>
<path d="M67.7386 168H78.7786V165.636H70.2466V160.296H77.3386V157.932H70.2466V153.084H78.7786V150.72H67.7386V168ZM84.6205 168.36C86.6845 168.36 88.2405 167.612 89.2885 166.116V168H91.5085V160.02C91.5085 159.476 91.4845 158.968 91.4365 158.496C91.3885 158.024 91.2605 157.576 91.0525 157.152C90.6525 156.296 90.0205 155.672 89.1565 155.28C88.3005 154.88 87.2925 154.68 86.1325 154.68C84.6365 154.68 83.4365 155.008 82.5325 155.664C81.6285 156.32 81.0205 157.204 80.7085 158.316L83.0485 159.036C83.2725 158.316 83.6685 157.796 84.2365 157.476C84.8045 157.156 85.4285 156.996 86.1085 156.996C87.1165 156.996 87.8445 157.212 88.2925 157.644C88.7485 158.068 88.9965 158.728 89.0365 159.624C87.9805 159.768 86.9485 159.92 85.9405 160.08C84.9325 160.232 84.0525 160.416 83.3005 160.632C82.3005 160.952 81.5405 161.428 81.0205 162.06C80.5005 162.692 80.2405 163.496 80.2405 164.472C80.2405 165.176 80.4045 165.824 80.7325 166.416C81.0685 167 81.5605 167.472 82.2085 167.832C82.8645 168.184 83.6685 168.36 84.6205 168.36ZM85.0645 166.308C84.2645 166.308 83.6725 166.124 83.2885 165.756C82.9125 165.388 82.7245 164.952 82.7245 164.448C82.7245 163.936 82.8925 163.532 83.2285 163.236C83.5725 162.94 84.0005 162.704 84.5125 162.528C85.0565 162.368 85.6965 162.228 86.4325 162.108C87.1765 161.988 88.0365 161.856 89.0125 161.712C89.0045 162.016 88.9845 162.356 88.9525 162.732C88.9205 163.108 88.8525 163.444 88.7485 163.74C88.6525 164.164 88.4485 164.572 88.1365 164.964C87.8325 165.356 87.4205 165.68 86.9005 165.936C86.3885 166.184 85.7765 166.308 85.0645 166.308ZM98.8805 168.348C100.521 168.348 101.805 167.984 102.733 167.256C103.669 166.528 104.137 165.524 104.137 164.244C104.137 163.572 103.997 163.004 103.717 162.54C103.445 162.076 102.989 161.676 102.349 161.34C101.709 160.996 100.845 160.684 99.7565 160.404C98.7405 160.148 97.9725 159.928 97.4525 159.744C96.9405 159.552 96.5925 159.36 96.4085 159.168C96.2245 158.968 96.1325 158.724 96.1325 158.436C96.1325 157.94 96.3685 157.552 96.8405 157.272C97.3125 156.984 97.9285 156.856 98.6885 156.888C99.4805 156.92 100.125 157.12 100.621 157.488C101.117 157.848 101.409 158.336 101.497 158.952L104.065 158.484C103.921 157.332 103.357 156.412 102.373 155.724C101.389 155.028 100.153 154.68 98.6645 154.68C97.1445 154.68 95.9245 155.036 95.0045 155.748C94.0845 156.452 93.6245 157.392 93.6245 158.568C93.6245 159.2 93.7605 159.74 94.0325 160.188C94.3125 160.628 94.7765 161.012 95.4245 161.34C96.0805 161.668 96.9645 161.98 98.0765 162.276C99.0925 162.548 99.8485 162.776 100.345 162.96C100.841 163.144 101.165 163.34 101.317 163.548C101.477 163.748 101.557 164.012 101.557 164.34C101.557 164.9 101.333 165.34 100.885 165.66C100.445 165.98 99.8325 166.14 99.0485 166.14C98.1845 166.14 97.4605 165.948 96.8765 165.564C96.3005 165.18 95.9325 164.648 95.7725 163.968L93.2045 164.364C93.4285 165.628 94.0365 166.608 95.0285 167.304C96.0205 168 97.3045 168.348 98.8805 168.348ZM107.375 173.76H109.763L116.915 155.04H114.371L110.711 164.784L106.883 155.04H104.267L109.511 167.94L107.375 173.76ZM129.616 168V165.876C128.768 166.004 128.028 166.032 127.396 165.96C126.772 165.88 126.316 165.596 126.028 165.108C125.876 164.844 125.792 164.52 125.776 164.136C125.768 163.752 125.764 163.3 125.764 162.78V157.056H129.616V155.04H125.764V151.44H123.244V155.04H120.76V157.056H123.244V162.9C123.244 163.604 123.252 164.236 123.268 164.796C123.292 165.348 123.444 165.892 123.724 166.428C124.044 167.028 124.512 167.468 125.128 167.748C125.744 168.028 126.444 168.18 127.228 168.204C128.012 168.228 128.808 168.16 129.616 168ZM136.667 168.36C137.955 168.36 139.075 168.072 140.027 167.496C140.979 166.912 141.715 166.108 142.235 165.084C142.763 164.052 143.027 162.86 143.027 161.508C143.027 160.172 142.767 158.992 142.247 157.968C141.727 156.936 140.991 156.132 140.039 155.556C139.087 154.972 137.963 154.68 136.667 154.68C135.395 154.68 134.283 154.968 133.331 155.544C132.379 156.12 131.639 156.92 131.111 157.944C130.583 158.968 130.319 160.156 130.319 161.508C130.319 162.844 130.579 164.028 131.099 165.06C131.619 166.092 132.351 166.9 133.295 167.484C134.247 168.068 135.371 168.36 136.667 168.36ZM136.667 165.996C135.459 165.996 134.543 165.592 133.919 164.784C133.295 163.968 132.983 162.876 132.983 161.508C132.983 160.188 133.283 159.116 133.883 158.292C134.483 157.46 135.411 157.044 136.667 157.044C137.891 157.044 138.811 157.448 139.427 158.256C140.051 159.064 140.363 160.148 140.363 161.508C140.363 162.836 140.055 163.916 139.439 164.748C138.831 165.58 137.907 165.996 136.667 165.996ZM153.952 168.348C154.888 168.348 155.716 168.18 156.436 167.844C157.164 167.508 157.764 167.044 158.236 166.452V168H160.468V155.04H157.936V161.784C157.936 162.808 157.788 163.628 157.492 164.244C157.196 164.852 156.796 165.292 156.292 165.564C155.796 165.836 155.248 165.972 154.648 165.972C153.96 165.972 153.4 165.832 152.968 165.552C152.536 165.272 152.204 164.904 151.972 164.448C151.74 163.992 151.58 163.5 151.492 162.972C151.412 162.436 151.372 161.916 151.372 161.412V155.04H148.828V162.24C148.828 162.64 148.864 163.104 148.936 163.632C149.008 164.16 149.144 164.7 149.344 165.252C149.544 165.804 149.832 166.316 150.208 166.788C150.592 167.252 151.088 167.628 151.696 167.916C152.304 168.204 153.056 168.348 153.952 168.348ZM168.09 168.348C169.73 168.348 171.014 167.984 171.942 167.256C172.878 166.528 173.346 165.524 173.346 164.244C173.346 163.572 173.206 163.004 172.926 162.54C172.654 162.076 172.198 161.676 171.558 161.34C170.918 160.996 170.054 160.684 168.966 160.404C167.95 160.148 167.182 159.928 166.662 159.744C166.15 159.552 165.802 159.36 165.618 159.168C165.434 158.968 165.342 158.724 165.342 158.436C165.342 157.94 165.578 157.552 166.05 157.272C166.522 156.984 167.138 156.856 167.898 156.888C168.69 156.92 169.334 157.12 169.83 157.488C170.326 157.848 170.618 158.336 170.706 158.952L173.274 158.484C173.13 157.332 172.566 156.412 171.582 155.724C170.598 155.028 169.362 154.68 167.874 154.68C166.354 154.68 165.134 155.036 164.214 155.748C163.294 156.452 162.834 157.392 162.834 158.568C162.834 159.2 162.97 159.74 163.242 160.188C163.522 160.628 163.986 161.012 164.634 161.34C165.29 161.668 166.174 161.98 167.286 162.276C168.302 162.548 169.058 162.776 169.554 162.96C170.05 163.144 170.374 163.34 170.526 163.548C170.686 163.748 170.766 164.012 170.766 164.34C170.766 164.9 170.542 165.34 170.094 165.66C169.654 165.98 169.042 166.14 168.258 166.14C167.394 166.14 166.67 165.948 166.086 165.564C165.51 165.18 165.142 164.648 164.982 163.968L162.414 164.364C162.638 165.628 163.246 166.608 164.238 167.304C165.23 168 166.514 168.348 168.09 168.348ZM181.049 168.36C182.305 168.36 183.445 168.044 184.469 167.412C185.493 166.772 186.257 165.872 186.761 164.712L184.301 163.932C183.645 165.308 182.521 165.996 180.929 165.996C179.841 165.996 178.985 165.668 178.361 165.012C177.737 164.356 177.373 163.428 177.269 162.228H186.929C187.017 160.676 186.833 159.336 186.377 158.208C185.921 157.08 185.229 156.212 184.301 155.604C183.373 154.988 182.249 154.68 180.929 154.68C179.665 154.68 178.557 154.964 177.605 155.532C176.653 156.1 175.909 156.904 175.373 157.944C174.845 158.984 174.581 160.212 174.581 161.628C174.581 162.964 174.849 164.14 175.385 165.156C175.929 166.164 176.685 166.952 177.653 167.52C178.629 168.08 179.761 168.36 181.049 168.36ZM181.025 156.9C182.985 156.9 184.097 158.024 184.361 160.272H177.329C177.489 159.176 177.877 158.34 178.493 157.764C179.109 157.188 179.953 156.9 181.025 156.9Z" fill="black"/>
<path d="M135.907 84.9351C134.298 83.6113 132.413 82.6636 130.391 82.161C128.368 81.6585 126.259 81.6137 124.217 82.0301C121.499 82.5792 119.004 83.9237 117.051 85.8928C115.097 87.8619 113.772 90.3669 113.245 93.0901C112.86 95.1318 112.93 97.2334 113.45 99.245C113.97 101.257 114.928 103.129 116.255 104.728C117.486 106.117 118.192 107.894 118.25 109.75V115C118.25 116.392 118.803 117.728 119.788 118.712C120.772 119.697 122.108 120.25 123.5 120.25H130.5C131.892 120.25 133.228 119.697 134.212 118.712C135.197 117.728 135.75 116.392 135.75 115V110.083C135.809 108.034 136.561 106.065 137.885 104.5C140.204 101.631 141.297 97.9635 140.927 94.2934C140.556 90.6233 138.753 87.2477 135.907 84.9001V84.9351ZM132.25 115C132.25 115.464 132.066 115.909 131.737 116.237C131.409 116.566 130.964 116.75 130.5 116.75H123.5C123.036 116.75 122.591 116.566 122.262 116.237C121.934 115.909 121.75 115.464 121.75 115V113.25H132.25V115ZM135.172 102.33C133.413 104.417 132.386 107.024 132.25 109.75H128.75V104.5C128.75 104.036 128.566 103.591 128.237 103.263C127.909 102.934 127.464 102.75 127 102.75C126.536 102.75 126.091 102.934 125.762 103.263C125.434 103.591 125.25 104.036 125.25 104.5V109.75H121.75C121.704 107.069 120.712 104.491 118.95 102.47C117.787 101.077 117.005 99.4065 116.681 97.6214C116.356 95.8363 116.499 93.9975 117.097 92.2842C117.694 90.571 118.726 89.0419 120.09 87.8459C121.455 86.6499 123.106 85.8279 124.882 85.4601C126.409 85.1457 127.987 85.1752 129.501 85.5466C131.015 85.918 132.428 86.6219 133.636 87.6072C134.844 88.5925 135.818 89.8345 136.486 91.243C137.154 92.6514 137.501 94.1911 137.5 95.7501C137.513 98.1473 136.69 100.474 135.172 102.33Z" fill="black"/>
</svg>
