<svg width="255" height="255" viewBox="0 0 255 255" fill="none" xmlns="http://www.w3.org/2000/svg">
<rect width="255" height="255" rx="10" fill="#F9F9F9"/>
<path d="M42.9713 168.36C44.1633 168.36 45.2593 168.16 46.2593 167.76C47.2673 167.36 48.0753 166.768 48.6833 165.984C49.2913 165.2 49.5953 164.228 49.5953 163.068C49.5953 162.228 49.4393 161.532 49.1273 160.98C48.8153 160.42 48.4193 159.972 47.9393 159.636C47.4673 159.3 46.9753 159.04 46.4633 158.856C45.9593 158.664 45.5073 158.512 45.1073 158.4L41.9153 157.5C41.5073 157.388 41.0953 157.248 40.6793 157.08C40.2713 156.904 39.9273 156.668 39.6473 156.372C39.3673 156.076 39.2273 155.688 39.2273 155.208C39.2273 154.712 39.3833 154.28 39.6953 153.912C40.0153 153.536 40.4393 153.244 40.9673 153.036C41.5033 152.828 42.0913 152.732 42.7313 152.748C43.7233 152.756 44.5993 153.04 45.3593 153.6C46.1273 154.152 46.6033 154.916 46.7873 155.892L49.4753 155.436C49.1233 153.844 48.3553 152.608 47.1713 151.728C45.9873 150.84 44.5193 150.388 42.7673 150.372C41.6073 150.364 40.5593 150.552 39.6233 150.936C38.6873 151.32 37.9433 151.88 37.3913 152.616C36.8473 153.352 36.5753 154.256 36.5753 155.328C36.5753 156.256 36.7713 157.008 37.1633 157.584C37.5553 158.16 38.0433 158.608 38.6273 158.928C39.2193 159.248 39.8033 159.492 40.3793 159.66L44.8073 160.968C45.4473 161.16 45.9673 161.432 46.3673 161.784C46.7753 162.128 46.9793 162.612 46.9793 163.236C46.9793 163.812 46.7993 164.308 46.4393 164.724C46.0873 165.132 45.6193 165.448 45.0353 165.672C44.4513 165.888 43.8113 165.996 43.1153 165.996C41.9953 165.996 41.0153 165.704 40.1753 165.12C39.3353 164.536 38.7833 163.712 38.5193 162.648L35.9033 163.044C36.0953 164.14 36.5113 165.088 37.1513 165.888C37.7913 166.68 38.6113 167.292 39.6113 167.724C40.6113 168.148 41.7313 168.36 42.9713 168.36ZM58.8687 168V165.876C58.0207 166.004 57.2807 166.032 56.6487 165.96C56.0247 165.88 55.5687 165.596 55.2807 165.108C55.1287 164.844 55.0447 164.52 55.0287 164.136C55.0207 163.752 55.0167 163.3 55.0167 162.78V157.056H58.8687V155.04H55.0167V151.44H52.4967V155.04H50.0127V157.056H52.4967V162.9C52.4967 163.604 52.5047 164.236 52.5207 164.796C52.5447 165.348 52.6967 165.892 52.9767 166.428C53.2967 167.028 53.7647 167.468 54.3807 167.748C54.9967 168.028 55.6967 168.18 56.4807 168.204C57.2647 168.228 58.0607 168.16 58.8687 168ZM62.3015 173.76H64.6895L71.8415 155.04H69.2975L65.6375 164.784L61.8095 155.04H59.1935L64.4375 167.94L62.3015 173.76ZM73.2614 168H75.7694V150.36H73.2614V168ZM84.421 168.36C85.677 168.36 86.817 168.044 87.841 167.412C88.865 166.772 89.629 165.872 90.133 164.712L87.673 163.932C87.017 165.308 85.893 165.996 84.301 165.996C83.213 165.996 82.357 165.668 81.733 165.012C81.109 164.356 80.745 163.428 80.641 162.228H90.301C90.389 160.676 90.205 159.336 89.749 158.208C89.293 157.08 88.601 156.212 87.673 155.604C86.745 154.988 85.621 154.68 84.301 154.68C83.037 154.68 81.929 154.964 80.977 155.532C80.025 156.1 79.281 156.904 78.745 157.944C78.217 158.984 77.953 160.212 77.953 161.628C77.953 162.964 78.221 164.14 78.757 165.156C79.301 166.164 80.057 166.952 81.025 167.52C82.001 168.08 83.133 168.36 84.421 168.36ZM84.397 156.9C86.357 156.9 87.469 158.024 87.733 160.272H80.701C80.861 159.176 81.249 158.34 81.865 157.764C82.481 157.188 83.325 156.9 84.397 156.9ZM97.2493 168.348C98.8893 168.348 100.173 167.984 101.101 167.256C102.037 166.528 102.505 165.524 102.505 164.244C102.505 163.572 102.365 163.004 102.085 162.54C101.813 162.076 101.357 161.676 100.717 161.34C100.077 160.996 99.2133 160.684 98.1253 160.404C97.1093 160.148 96.3413 159.928 95.8213 159.744C95.3093 159.552 94.9613 159.36 94.7773 159.168C94.5933 158.968 94.5013 158.724 94.5013 158.436C94.5013 157.94 94.7373 157.552 95.2093 157.272C95.6813 156.984 96.2973 156.856 97.0573 156.888C97.8493 156.92 98.4933 157.12 98.9893 157.488C99.4853 157.848 99.7773 158.336 99.8653 158.952L102.433 158.484C102.289 157.332 101.725 156.412 100.741 155.724C99.7573 155.028 98.5213 154.68 97.0333 154.68C95.5133 154.68 94.2933 155.036 93.3733 155.748C92.4533 156.452 91.9933 157.392 91.9933 158.568C91.9933 159.2 92.1293 159.74 92.4013 160.188C92.6813 160.628 93.1453 161.012 93.7933 161.34C94.4493 161.668 95.3333 161.98 96.4453 162.276C97.4613 162.548 98.2173 162.776 98.7133 162.96C99.2093 163.144 99.5333 163.34 99.6853 163.548C99.8453 163.748 99.9253 164.012 99.9253 164.34C99.9253 164.9 99.7013 165.34 99.2533 165.66C98.8133 165.98 98.2013 166.14 97.4173 166.14C96.5533 166.14 95.8293 165.948 95.2453 165.564C94.6693 165.18 94.3013 164.648 94.1413 163.968L91.5733 164.364C91.7973 165.628 92.4053 166.608 93.3973 167.304C94.3893 168 95.6733 168.348 97.2493 168.348ZM114.241 168.36C114.625 168.36 115.005 168.34 115.381 168.3C115.765 168.26 116.153 168.18 116.545 168.06C117.009 167.94 117.469 167.756 117.925 167.508C118.381 167.252 118.793 166.94 119.161 166.572L120.901 168.228L122.521 166.488L120.361 164.484C120.425 164.228 120.473 163.9 120.505 163.5C120.537 163.092 120.553 162.636 120.553 162.132V159.168H118.309L118.321 161.412C118.321 161.596 118.317 161.788 118.309 161.988C118.301 162.188 118.289 162.376 118.273 162.552L113.569 158.172C113.345 157.964 113.125 157.764 112.909 157.572C112.701 157.38 112.521 157.2 112.369 157.032C112.121 156.752 111.917 156.48 111.757 156.216C111.605 155.944 111.529 155.592 111.529 155.16C111.529 154.184 111.945 153.492 112.777 153.084C113.233 152.868 113.745 152.76 114.313 152.76C114.657 152.76 115.001 152.804 115.345 152.892C115.689 152.972 115.997 153.128 116.269 153.36C116.589 153.624 116.813 153.948 116.941 154.332L119.413 153.756C119.301 153.388 119.137 153.028 118.921 152.676C118.713 152.324 118.457 152.008 118.153 151.728C117.673 151.256 117.097 150.916 116.425 150.708C115.753 150.5 115.057 150.396 114.337 150.396C113.929 150.396 113.513 150.428 113.089 150.492C112.673 150.548 112.261 150.66 111.853 150.828C110.957 151.172 110.253 151.736 109.741 152.52C109.237 153.296 108.985 154.172 108.985 155.148C108.985 155.852 109.117 156.46 109.381 156.972C109.645 157.476 110.033 158.004 110.545 158.556C110.321 158.684 110.097 158.832 109.873 159C109.649 159.16 109.445 159.352 109.261 159.576C108.853 160.056 108.553 160.604 108.361 161.22C108.169 161.836 108.077 162.464 108.085 163.104C108.109 163.768 108.225 164.396 108.433 164.988C108.649 165.572 108.977 166.108 109.417 166.596C109.985 167.204 110.689 167.652 111.529 167.94C112.369 168.22 113.273 168.36 114.241 168.36ZM114.313 165.96C113.777 165.96 113.225 165.876 112.657 165.708C112.089 165.532 111.641 165.252 111.313 164.868C111.113 164.62 110.949 164.34 110.821 164.028C110.701 163.716 110.641 163.364 110.641 162.972C110.625 162.252 110.805 161.652 111.181 161.172C111.485 160.804 111.897 160.528 112.417 160.344L117.337 164.856C117.193 164.992 117.013 165.132 116.797 165.276C116.589 165.42 116.317 165.56 115.981 165.696C115.733 165.8 115.473 165.872 115.201 165.912C114.929 165.944 114.633 165.96 114.313 165.96ZM134.124 168.36C135.316 168.36 136.412 168.16 137.412 167.76C138.42 167.36 139.228 166.768 139.836 165.984C140.444 165.2 140.748 164.228 140.748 163.068C140.748 162.228 140.592 161.532 140.28 160.98C139.968 160.42 139.572 159.972 139.092 159.636C138.62 159.3 138.128 159.04 137.616 158.856C137.112 158.664 136.66 158.512 136.26 158.4L133.068 157.5C132.66 157.388 132.248 157.248 131.832 157.08C131.424 156.904 131.08 156.668 130.8 156.372C130.52 156.076 130.38 155.688 130.38 155.208C130.38 154.712 130.536 154.28 130.848 153.912C131.168 153.536 131.592 153.244 132.12 153.036C132.656 152.828 133.244 152.732 133.884 152.748C134.876 152.756 135.752 153.04 136.512 153.6C137.28 154.152 137.756 154.916 137.94 155.892L140.628 155.436C140.276 153.844 139.508 152.608 138.324 151.728C137.14 150.84 135.672 150.388 133.92 150.372C132.76 150.364 131.712 150.552 130.776 150.936C129.84 151.32 129.096 151.88 128.544 152.616C128 153.352 127.728 154.256 127.728 155.328C127.728 156.256 127.924 157.008 128.316 157.584C128.708 158.16 129.196 158.608 129.78 158.928C130.372 159.248 130.956 159.492 131.532 159.66L135.96 160.968C136.6 161.16 137.12 161.432 137.52 161.784C137.928 162.128 138.132 162.612 138.132 163.236C138.132 163.812 137.952 164.308 137.592 164.724C137.24 165.132 136.772 165.448 136.188 165.672C135.604 165.888 134.964 165.996 134.268 165.996C133.148 165.996 132.168 165.704 131.328 165.12C130.488 164.536 129.936 163.712 129.672 162.648L127.056 163.044C127.248 164.14 127.664 165.088 128.304 165.888C128.944 166.68 129.764 167.292 130.764 167.724C131.764 168.148 132.884 168.36 134.124 168.36ZM144.123 173.76H146.511L153.663 155.04H151.119L147.459 164.784L143.631 155.04H141.015L146.259 167.94L144.123 173.76ZM154.831 168H157.351V159.9C157.351 159.02 157.591 158.308 158.071 157.764C158.559 157.22 159.199 156.948 159.991 156.948C160.791 156.948 161.427 157.22 161.899 157.764C162.379 158.3 162.619 159.036 162.619 159.972L162.607 168H165.115L165.127 159.9C165.127 158.924 165.387 158.188 165.907 157.692C166.435 157.196 167.055 156.948 167.767 156.948C168.551 156.948 169.183 157.212 169.663 157.74C170.143 158.268 170.383 158.996 170.383 159.924L170.371 168H172.879L172.891 159.324C172.891 157.932 172.503 156.816 171.727 155.976C170.959 155.136 169.879 154.716 168.487 154.716C167.639 154.716 166.871 154.904 166.183 155.28C165.495 155.648 164.951 156.16 164.551 156.816C164.207 156.16 163.715 155.648 163.075 155.28C162.443 154.904 161.679 154.716 160.783 154.716C160.007 154.716 159.295 154.872 158.647 155.184C158.007 155.488 157.479 155.904 157.063 156.432V155.04H154.831V168ZM175.295 168H177.527V166.812C177.999 167.3 178.555 167.68 179.195 167.952C179.843 168.224 180.575 168.36 181.391 168.36C182.599 168.36 183.639 168.06 184.511 167.46C185.391 166.852 186.067 166.032 186.539 165C187.019 163.968 187.259 162.804 187.259 161.508C187.259 160.204 187.019 159.04 186.539 158.016C186.059 156.984 185.375 156.172 184.487 155.58C183.607 154.98 182.559 154.68 181.343 154.68C180.623 154.68 179.967 154.788 179.375 155.004C178.783 155.22 178.263 155.528 177.815 155.928V150.72H175.295V168ZM181.043 166.092C179.811 166.092 178.915 165.664 178.355 164.808C177.803 163.952 177.527 162.852 177.527 161.508C177.527 160.164 177.803 159.068 178.355 158.22C178.907 157.372 179.775 156.948 180.959 156.948C181.791 156.948 182.475 157.152 183.011 157.56C183.547 157.968 183.943 158.516 184.199 159.204C184.463 159.892 184.595 160.66 184.595 161.508C184.595 162.364 184.467 163.14 184.211 163.836C183.955 164.524 183.563 165.072 183.035 165.48C182.515 165.888 181.851 166.092 181.043 166.092ZM194.837 168.36C196.125 168.36 197.245 168.072 198.197 167.496C199.149 166.912 199.885 166.108 200.405 165.084C200.933 164.052 201.197 162.86 201.197 161.508C201.197 160.172 200.937 158.992 200.417 157.968C199.897 156.936 199.161 156.132 198.209 155.556C197.257 154.972 196.133 154.68 194.837 154.68C193.565 154.68 192.453 154.968 191.501 155.544C190.549 156.12 189.809 156.92 189.281 157.944C188.753 158.968 188.489 160.156 188.489 161.508C188.489 162.844 188.749 164.028 189.269 165.06C189.789 166.092 190.521 166.9 191.465 167.484C192.417 168.068 193.541 168.36 194.837 168.36ZM194.837 165.996C193.629 165.996 192.713 165.592 192.089 164.784C191.465 163.968 191.153 162.876 191.153 161.508C191.153 160.188 191.453 159.116 192.053 158.292C192.653 157.46 193.581 157.044 194.837 157.044C196.061 157.044 196.981 157.448 197.597 158.256C198.221 159.064 198.533 160.148 198.533 161.508C198.533 162.836 198.225 163.916 197.609 164.748C197.001 165.58 196.077 165.996 194.837 165.996ZM203.374 168H205.882V150.36H203.374V168ZM213.741 168.348C215.381 168.348 216.665 167.984 217.593 167.256C218.529 166.528 218.997 165.524 218.997 164.244C218.997 163.572 218.857 163.004 218.577 162.54C218.305 162.076 217.849 161.676 217.209 161.34C216.569 160.996 215.705 160.684 214.617 160.404C213.601 160.148 212.833 159.928 212.313 159.744C211.801 159.552 211.453 159.36 211.269 159.168C211.085 158.968 210.993 158.724 210.993 158.436C210.993 157.94 211.229 157.552 211.701 157.272C212.173 156.984 212.789 156.856 213.549 156.888C214.341 156.92 214.985 157.12 215.481 157.488C215.977 157.848 216.269 158.336 216.357 158.952L218.925 158.484C218.781 157.332 218.217 156.412 217.233 155.724C216.249 155.028 215.013 154.68 213.525 154.68C212.005 154.68 210.785 155.036 209.865 155.748C208.945 156.452 208.485 157.392 208.485 158.568C208.485 159.2 208.621 159.74 208.893 160.188C209.173 160.628 209.637 161.012 210.285 161.34C210.941 161.668 211.825 161.98 212.937 162.276C213.953 162.548 214.709 162.776 215.205 162.96C215.701 163.144 216.025 163.34 216.177 163.548C216.337 163.748 216.417 164.012 216.417 164.34C216.417 164.9 216.193 165.34 215.745 165.66C215.305 165.98 214.693 166.14 213.909 166.14C213.045 166.14 212.321 165.948 211.737 165.564C211.161 165.18 210.793 164.648 210.633 163.968L208.065 164.364C208.289 165.628 208.897 166.608 209.889 167.304C210.881 168 212.165 168.348 213.741 168.348Z" fill="black"/>
<path d="M142.117 94.2834V94.15L142.017 93.9C141.982 93.847 141.943 93.7968 141.9 93.75C141.855 93.6795 141.805 93.6126 141.75 93.55L141.6 93.4334L141.333 93.3L128.833 85.5834C128.569 85.4178 128.262 85.33 127.95 85.33C127.638 85.33 127.332 85.4178 127.067 85.5834L114.667 93.3L114.517 93.4334L114.367 93.55C114.311 93.6126 114.261 93.6795 114.217 93.75C114.174 93.7968 114.135 93.847 114.1 93.9L114 94.15V94.2834C113.984 94.4273 113.984 94.5727 114 94.7167V109.283C114 109.567 114.071 109.845 114.208 110.093C114.345 110.341 114.543 110.55 114.783 110.7L127.283 118.417C127.36 118.464 127.445 118.498 127.533 118.517H127.667C127.949 118.606 128.251 118.606 128.533 118.517H128.667C128.755 118.498 128.84 118.464 128.917 118.417L141.333 110.7C141.574 110.55 141.772 110.341 141.909 110.093C142.046 109.845 142.117 109.567 142.117 109.283V94.7167C142.133 94.5727 142.133 94.4273 142.117 94.2834ZM126.333 114.017L117.167 108.35V97.7167L126.333 103.367V114.017ZM128 100.483L118.667 94.7167L128 88.9667L137.333 94.7167L128 100.483ZM138.833 108.35L129.667 114.017V103.367L138.833 97.7167V108.35Z" fill="black"/>
</svg>
