<svg width="255" height="255" viewBox="0 0 255 255" fill="none" xmlns="http://www.w3.org/2000/svg">
<rect width="255" height="255" rx="10" fill="#F9F9F9"/>
<path d="M74.1191 168.36C75.7991 168.36 77.2231 168.004 78.3911 167.292C79.5671 166.572 80.4631 165.584 81.0791 164.328C81.6951 163.072 82.0031 161.644 82.0031 160.044C82.0031 159.98 81.9991 159.832 81.9911 159.6C81.9831 159.368 81.9711 159.176 81.9551 159.024H75.9311V161.04H79.2911C79.1151 162.64 78.6031 163.868 77.7551 164.724C76.9071 165.572 75.7431 165.988 74.2631 165.972C72.4311 165.956 71.0511 165.344 70.1231 164.136C69.2031 162.928 68.7471 161.336 68.7551 159.36C68.7631 158.04 68.9671 156.884 69.3671 155.892C69.7751 154.892 70.3871 154.116 71.2031 153.564C72.0191 153.012 73.0391 152.74 74.2631 152.748C75.4551 152.756 76.4431 153.068 77.2271 153.684C78.0111 154.3 78.5751 155.124 78.9191 156.156L81.4631 155.7C81.0231 154.036 80.1951 152.732 78.9791 151.788C77.7711 150.844 76.1511 150.372 74.1191 150.372C72.5431 150.372 71.1511 150.736 69.9431 151.464C68.7351 152.184 67.7911 153.216 67.1111 154.56C66.4311 155.896 66.0911 157.496 66.0911 159.36C66.0911 161.248 66.4391 162.864 67.1351 164.208C67.8311 165.552 68.7831 166.58 69.9911 167.292C71.1991 168.004 72.5751 168.36 74.1191 168.36ZM89.3228 168.36C90.6108 168.36 91.7308 168.072 92.6828 167.496C93.6348 166.912 94.3708 166.108 94.8908 165.084C95.4188 164.052 95.6828 162.86 95.6828 161.508C95.6828 160.172 95.4228 158.992 94.9028 157.968C94.3828 156.936 93.6468 156.132 92.6948 155.556C91.7428 154.972 90.6188 154.68 89.3228 154.68C88.0508 154.68 86.9388 154.968 85.9868 155.544C85.0348 156.12 84.2948 156.92 83.7668 157.944C83.2388 158.968 82.9748 160.156 82.9748 161.508C82.9748 162.844 83.2348 164.028 83.7548 165.06C84.2748 166.092 85.0068 166.9 85.9508 167.484C86.9028 168.068 88.0268 168.36 89.3228 168.36ZM89.3228 165.996C88.1148 165.996 87.1988 165.592 86.5748 164.784C85.9508 163.968 85.6388 162.876 85.6388 161.508C85.6388 160.188 85.9388 159.116 86.5388 158.292C87.1388 157.46 88.0668 157.044 89.3228 157.044C90.5468 157.044 91.4668 157.448 92.0828 158.256C92.7068 159.064 93.0188 160.148 93.0188 161.508C93.0188 162.836 92.7108 163.916 92.0948 164.748C91.4868 165.58 90.5628 165.996 89.3228 165.996ZM103.248 168.36C104.536 168.36 105.656 168.072 106.608 167.496C107.56 166.912 108.296 166.108 108.816 165.084C109.344 164.052 109.608 162.86 109.608 161.508C109.608 160.172 109.348 158.992 108.828 157.968C108.308 156.936 107.572 156.132 106.62 155.556C105.668 154.972 104.544 154.68 103.248 154.68C101.976 154.68 100.864 154.968 99.9118 155.544C98.9598 156.12 98.2198 156.92 97.6918 157.944C97.1638 158.968 96.8998 160.156 96.8998 161.508C96.8998 162.844 97.1598 164.028 97.6798 165.06C98.1998 166.092 98.9318 166.9 99.8758 167.484C100.828 168.068 101.952 168.36 103.248 168.36ZM103.248 165.996C102.04 165.996 101.124 165.592 100.5 164.784C99.8758 163.968 99.5638 162.876 99.5638 161.508C99.5638 160.188 99.8638 159.116 100.464 158.292C101.064 157.46 101.992 157.044 103.248 157.044C104.472 157.044 105.392 157.448 106.008 158.256C106.632 159.064 106.944 160.148 106.944 161.508C106.944 162.836 106.636 163.916 106.02 164.748C105.412 165.58 104.488 165.996 103.248 165.996ZM116.693 168.36C117.429 168.36 118.093 168.248 118.685 168.024C119.277 167.808 119.801 167.5 120.257 167.1V168.324C120.273 169.436 119.985 170.276 119.393 170.844C118.809 171.42 117.981 171.708 116.909 171.708C116.333 171.708 115.785 171.58 115.265 171.324C114.745 171.068 114.345 170.664 114.065 170.112L111.749 171.288C112.277 172.208 113.005 172.908 113.933 173.388C114.861 173.876 115.845 174.12 116.885 174.12C118.397 174.12 119.661 173.804 120.677 173.172C121.693 172.548 122.337 171.58 122.609 170.268C122.673 169.964 122.717 169.652 122.741 169.332C122.765 169.02 122.777 168.692 122.777 168.348V155.04H120.557V156.204C120.093 155.724 119.541 155.352 118.901 155.088C118.261 154.816 117.541 154.68 116.741 154.68C115.525 154.68 114.473 154.98 113.585 155.58C112.705 156.172 112.025 156.984 111.545 158.016C111.065 159.04 110.825 160.204 110.825 161.508C110.825 162.804 111.061 163.968 111.533 165C112.013 166.032 112.693 166.852 113.573 167.46C114.453 168.06 115.493 168.36 116.693 168.36ZM117.041 166.092C116.241 166.092 115.577 165.888 115.049 165.48C114.521 165.072 114.129 164.524 113.873 163.836C113.617 163.14 113.489 162.364 113.489 161.508C113.489 160.66 113.617 159.892 113.873 159.204C114.137 158.516 114.537 157.968 115.073 157.56C115.609 157.152 116.293 156.948 117.125 156.948C118.309 156.948 119.177 157.372 119.729 158.22C120.281 159.068 120.557 160.164 120.557 161.508C120.557 162.852 120.281 163.952 119.729 164.808C119.177 165.664 118.281 166.092 117.041 166.092ZM125.686 168H128.194V150.36H125.686V168ZM136.846 168.36C138.102 168.36 139.242 168.044 140.266 167.412C141.29 166.772 142.054 165.872 142.558 164.712L140.098 163.932C139.442 165.308 138.318 165.996 136.726 165.996C135.638 165.996 134.782 165.668 134.158 165.012C133.534 164.356 133.17 163.428 133.066 162.228H142.726C142.814 160.676 142.63 159.336 142.174 158.208C141.718 157.08 141.026 156.212 140.098 155.604C139.17 154.988 138.046 154.68 136.726 154.68C135.462 154.68 134.354 154.964 133.402 155.532C132.45 156.1 131.706 156.904 131.17 157.944C130.642 158.984 130.378 160.212 130.378 161.628C130.378 162.964 130.646 164.14 131.182 165.156C131.726 166.164 132.482 166.952 133.45 167.52C134.426 168.08 135.558 168.36 136.846 168.36ZM136.822 156.9C138.782 156.9 139.894 158.024 140.158 160.272H133.126C133.286 159.176 133.674 158.34 134.29 157.764C134.906 157.188 135.75 156.9 136.822 156.9ZM148.823 168H151.331V160.62H157.619V158.1H151.331V153.228H159.059V150.72H148.823V168ZM165.798 168.36C167.086 168.36 168.206 168.072 169.158 167.496C170.11 166.912 170.846 166.108 171.366 165.084C171.894 164.052 172.158 162.86 172.158 161.508C172.158 160.172 171.898 158.992 171.378 157.968C170.858 156.936 170.122 156.132 169.17 155.556C168.218 154.972 167.094 154.68 165.798 154.68C164.526 154.68 163.414 154.968 162.462 155.544C161.51 156.12 160.77 156.92 160.242 157.944C159.714 158.968 159.45 160.156 159.45 161.508C159.45 162.844 159.71 164.028 160.23 165.06C160.75 166.092 161.482 166.9 162.426 167.484C163.378 168.068 164.502 168.36 165.798 168.36ZM165.798 165.996C164.59 165.996 163.674 165.592 163.05 164.784C162.426 163.968 162.114 162.876 162.114 161.508C162.114 160.188 162.414 159.116 163.014 158.292C163.614 157.46 164.542 157.044 165.798 157.044C167.022 157.044 167.942 157.448 168.558 158.256C169.182 159.064 169.494 160.148 169.494 161.508C169.494 162.836 169.186 163.916 168.57 164.748C167.962 165.58 167.038 165.996 165.798 165.996ZM174.083 168H176.627V161.256C176.627 160.232 176.775 159.416 177.071 158.808C177.375 158.192 177.775 157.748 178.271 157.476C178.767 157.204 179.315 157.068 179.915 157.068C180.603 157.068 181.163 157.208 181.595 157.488C182.027 157.768 182.359 158.136 182.591 158.592C182.823 159.048 182.979 159.544 183.059 160.08C183.147 160.608 183.191 161.124 183.191 161.628V168H185.735V160.8C185.735 160.4 185.699 159.936 185.627 159.408C185.555 158.88 185.419 158.34 185.219 157.788C185.019 157.236 184.727 156.728 184.343 156.264C183.967 155.792 183.475 155.412 182.867 155.124C182.259 154.836 181.507 154.692 180.611 154.692C179.675 154.692 178.843 154.86 178.115 155.196C177.395 155.532 176.799 155.996 176.327 156.588V155.04H174.083V168ZM195.576 168V165.876C194.728 166.004 193.988 166.032 193.356 165.96C192.732 165.88 192.276 165.596 191.988 165.108C191.836 164.844 191.752 164.52 191.736 164.136C191.728 163.752 191.724 163.3 191.724 162.78V157.056H195.576V155.04H191.724V151.44H189.204V155.04H186.72V157.056H189.204V162.9C189.204 163.604 189.212 164.236 189.228 164.796C189.252 165.348 189.404 165.892 189.684 166.428C190.004 167.028 190.472 167.468 191.088 167.748C191.704 168.028 192.404 168.18 193.188 168.204C193.972 168.228 194.768 168.16 195.576 168Z" fill="black"/>
<path d="M143.5 115.667H141.667V84.5C141.667 84.0137 141.474 83.5474 141.13 83.2036C140.786 82.8598 140.32 82.6666 139.834 82.6666H133.417C133.097 82.6686 132.783 82.7542 132.507 82.915C132.23 83.0758 132 83.3062 131.84 83.5833L113.122 115.667H110.5C110.014 115.667 109.548 115.86 109.204 116.204C108.86 116.547 108.667 117.014 108.667 117.5C108.667 117.986 108.86 118.453 109.204 118.796C109.548 119.14 110.014 119.333 110.5 119.333H117.834C118.32 119.333 118.786 119.14 119.13 118.796C119.474 118.453 119.667 117.986 119.667 117.5C119.667 117.014 119.474 116.547 119.13 116.204C118.786 115.86 118.32 115.667 117.834 115.667H117.357L123.774 104.667H138V115.667H136.167C135.681 115.667 135.214 115.86 134.871 116.204C134.527 116.547 134.334 117.014 134.334 117.5C134.334 117.986 134.527 118.453 134.871 118.796C135.214 119.14 135.681 119.333 136.167 119.333H143.5C143.987 119.333 144.453 119.14 144.797 118.796C145.141 118.453 145.334 117.986 145.334 117.5C145.334 117.014 145.141 116.547 144.797 116.204C144.453 115.86 143.987 115.667 143.5 115.667ZM138 101H125.919L134.462 86.3333H138V101Z" fill="black"/>
</svg>
