<svg width="255" height="255" viewBox="0 0 255 255" fill="none" xmlns="http://www.w3.org/2000/svg">
<rect width="255" height="255" rx="10" fill="#F9F9F9"/>
<path d="M27.0964 168H29.6044V161.796H34.1884L37.2004 168H40.0684L36.8044 161.304C37.7884 160.88 38.5244 160.22 39.0124 159.324C39.5004 158.428 39.7444 157.404 39.7444 156.252C39.7444 154.852 39.3844 153.652 38.6644 152.652C37.9444 151.652 36.8604 151.04 35.4124 150.816C35.1884 150.776 34.9524 150.752 34.7044 150.744C34.4564 150.728 34.2484 150.72 34.0804 150.72H27.0964V168ZM29.6044 159.42V153.084H33.9844C34.1444 153.084 34.3204 153.092 34.5124 153.108C34.7124 153.124 34.9004 153.156 35.0764 153.204C35.8444 153.38 36.3884 153.772 36.7084 154.38C37.0284 154.988 37.1884 155.612 37.1884 156.252C37.1884 156.884 37.0284 157.508 36.7084 158.124C36.3884 158.732 35.8444 159.128 35.0764 159.312C34.9004 159.352 34.7124 159.38 34.5124 159.396C34.3204 159.412 34.1444 159.42 33.9844 159.42H29.6044ZM47.7538 168.36C49.0098 168.36 50.1498 168.044 51.1738 167.412C52.1978 166.772 52.9618 165.872 53.4658 164.712L51.0058 163.932C50.3498 165.308 49.2258 165.996 47.6338 165.996C46.5458 165.996 45.6898 165.668 45.0658 165.012C44.4418 164.356 44.0778 163.428 43.9738 162.228H53.6338C53.7218 160.676 53.5378 159.336 53.0818 158.208C52.6258 157.08 51.9338 156.212 51.0058 155.604C50.0778 154.988 48.9538 154.68 47.6338 154.68C46.3698 154.68 45.2618 154.964 44.3098 155.532C43.3578 156.1 42.6138 156.904 42.0778 157.944C41.5498 158.984 41.2858 160.212 41.2858 161.628C41.2858 162.964 41.5538 164.14 42.0898 165.156C42.6338 166.164 43.3898 166.952 44.3578 167.52C45.3338 168.08 46.4658 168.36 47.7538 168.36ZM47.7298 156.9C49.6898 156.9 50.8018 158.024 51.0658 160.272H44.0338C44.1938 159.176 44.5818 158.34 45.1978 157.764C45.8138 157.188 46.6578 156.9 47.7298 156.9ZM60.5821 168.348C62.2221 168.348 63.5061 167.984 64.4341 167.256C65.3701 166.528 65.8381 165.524 65.8381 164.244C65.8381 163.572 65.6981 163.004 65.4181 162.54C65.1461 162.076 64.6901 161.676 64.0501 161.34C63.4101 160.996 62.5461 160.684 61.4581 160.404C60.4421 160.148 59.6741 159.928 59.1541 159.744C58.6421 159.552 58.2941 159.36 58.1101 159.168C57.9261 158.968 57.8341 158.724 57.8341 158.436C57.8341 157.94 58.0701 157.552 58.5421 157.272C59.0141 156.984 59.6301 156.856 60.3901 156.888C61.1821 156.92 61.8261 157.12 62.3221 157.488C62.8181 157.848 63.1101 158.336 63.1981 158.952L65.7661 158.484C65.6221 157.332 65.0581 156.412 64.0741 155.724C63.0901 155.028 61.8541 154.68 60.3661 154.68C58.8461 154.68 57.6261 155.036 56.7061 155.748C55.7861 156.452 55.3261 157.392 55.3261 158.568C55.3261 159.2 55.4621 159.74 55.7341 160.188C56.0141 160.628 56.4781 161.012 57.1261 161.34C57.7821 161.668 58.6661 161.98 59.7781 162.276C60.7941 162.548 61.5501 162.776 62.0461 162.96C62.5421 163.144 62.8661 163.34 63.0181 163.548C63.1781 163.748 63.2581 164.012 63.2581 164.34C63.2581 164.9 63.0341 165.34 62.5861 165.66C62.1461 165.98 61.5341 166.14 60.7501 166.14C59.8861 166.14 59.1621 165.948 58.5781 165.564C58.0021 165.18 57.6341 164.648 57.4741 163.968L54.9061 164.364C55.1301 165.628 55.7381 166.608 56.7301 167.304C57.7221 168 59.0061 168.348 60.5821 168.348ZM67.7813 173.76H70.3013V167.088C70.7573 167.496 71.2813 167.808 71.8733 168.024C72.4733 168.248 73.1413 168.36 73.8773 168.36C75.0853 168.36 76.1253 168.06 76.9973 167.46C77.8773 166.852 78.5533 166.032 79.0253 165C79.5053 163.968 79.7453 162.804 79.7453 161.508C79.7453 160.204 79.5053 159.04 79.0253 158.016C78.5453 156.984 77.8613 156.172 76.9733 155.58C76.0933 154.98 75.0453 154.68 73.8293 154.68C73.0293 154.68 72.3093 154.816 71.6693 155.088C71.0293 155.352 70.4773 155.724 70.0133 156.204V155.04H67.7813V173.76ZM73.5293 166.092C72.2973 166.092 71.4013 165.664 70.8413 164.808C70.2893 163.952 70.0133 162.852 70.0133 161.508C70.0133 160.164 70.2893 159.068 70.8413 158.22C71.3933 157.372 72.2613 156.948 73.4453 156.948C74.2773 156.948 74.9613 157.152 75.4973 157.56C76.0333 157.968 76.4293 158.516 76.6853 159.204C76.9493 159.892 77.0813 160.66 77.0813 161.508C77.0813 162.364 76.9533 163.14 76.6973 163.836C76.4413 164.524 76.0493 165.072 75.5213 165.48C75.0013 165.888 74.3373 166.092 73.5293 166.092ZM87.3228 168.36C88.6108 168.36 89.7308 168.072 90.6828 167.496C91.6348 166.912 92.3708 166.108 92.8908 165.084C93.4188 164.052 93.6828 162.86 93.6828 161.508C93.6828 160.172 93.4228 158.992 92.9028 157.968C92.3828 156.936 91.6468 156.132 90.6948 155.556C89.7428 154.972 88.6188 154.68 87.3228 154.68C86.0508 154.68 84.9388 154.968 83.9868 155.544C83.0348 156.12 82.2948 156.92 81.7668 157.944C81.2388 158.968 80.9748 160.156 80.9748 161.508C80.9748 162.844 81.2348 164.028 81.7548 165.06C82.2748 166.092 83.0068 166.9 83.9508 167.484C84.9028 168.068 86.0268 168.36 87.3228 168.36ZM87.3228 165.996C86.1148 165.996 85.1988 165.592 84.5748 164.784C83.9508 163.968 83.6388 162.876 83.6388 161.508C83.6388 160.188 83.9388 159.116 84.5388 158.292C85.1388 157.46 86.0668 157.044 87.3228 157.044C88.5468 157.044 89.4668 157.448 90.0828 158.256C90.7068 159.064 91.0188 160.148 91.0188 161.508C91.0188 162.836 90.7108 163.916 90.0948 164.748C89.4868 165.58 88.5628 165.996 87.3228 165.996ZM95.6078 168H98.1518V161.256C98.1518 160.232 98.2998 159.416 98.5958 158.808C98.8998 158.192 99.2998 157.748 99.7958 157.476C100.292 157.204 100.84 157.068 101.44 157.068C102.128 157.068 102.688 157.208 103.12 157.488C103.552 157.768 103.884 158.136 104.116 158.592C104.348 159.048 104.504 159.544 104.584 160.08C104.672 160.608 104.716 161.124 104.716 161.628V168H107.26V160.8C107.26 160.4 107.224 159.936 107.152 159.408C107.08 158.88 106.944 158.34 106.744 157.788C106.544 157.236 106.252 156.728 105.868 156.264C105.492 155.792 105 155.412 104.392 155.124C103.784 154.836 103.032 154.692 102.136 154.692C101.2 154.692 100.368 154.86 99.6398 155.196C98.9198 155.532 98.3238 155.996 97.8518 156.588V155.04H95.6078V168ZM114.641 168.348C116.281 168.348 117.565 167.984 118.493 167.256C119.429 166.528 119.897 165.524 119.897 164.244C119.897 163.572 119.757 163.004 119.477 162.54C119.205 162.076 118.749 161.676 118.109 161.34C117.469 160.996 116.605 160.684 115.517 160.404C114.501 160.148 113.733 159.928 113.213 159.744C112.701 159.552 112.353 159.36 112.169 159.168C111.985 158.968 111.893 158.724 111.893 158.436C111.893 157.94 112.129 157.552 112.601 157.272C113.073 156.984 113.689 156.856 114.449 156.888C115.241 156.92 115.885 157.12 116.381 157.488C116.877 157.848 117.169 158.336 117.257 158.952L119.825 158.484C119.681 157.332 119.117 156.412 118.133 155.724C117.149 155.028 115.913 154.68 114.425 154.68C112.905 154.68 111.685 155.036 110.765 155.748C109.845 156.452 109.385 157.392 109.385 158.568C109.385 159.2 109.521 159.74 109.793 160.188C110.073 160.628 110.537 161.012 111.185 161.34C111.841 161.668 112.725 161.98 113.837 162.276C114.853 162.548 115.609 162.776 116.105 162.96C116.601 163.144 116.925 163.34 117.077 163.548C117.237 163.748 117.317 164.012 117.317 164.34C117.317 164.9 117.093 165.34 116.645 165.66C116.205 165.98 115.593 166.14 114.809 166.14C113.945 166.14 113.221 165.948 112.637 165.564C112.061 165.18 111.693 164.648 111.533 163.968L108.965 164.364C109.189 165.628 109.797 166.608 110.789 167.304C111.781 168 113.065 168.348 114.641 168.348ZM122.093 152.916H124.601V150.48H122.093V152.916ZM122.093 168H124.601V155.04H122.093V168ZM131.008 168H133.552L138.256 155.04H135.724L132.28 164.856L128.836 155.04H126.304L131.008 168ZM144.998 168.36C146.254 168.36 147.394 168.044 148.418 167.412C149.442 166.772 150.206 165.872 150.71 164.712L148.25 163.932C147.594 165.308 146.47 165.996 144.878 165.996C143.79 165.996 142.934 165.668 142.31 165.012C141.686 164.356 141.322 163.428 141.218 162.228H150.878C150.966 160.676 150.782 159.336 150.326 158.208C149.87 157.08 149.178 156.212 148.25 155.604C147.322 154.988 146.198 154.68 144.878 154.68C143.614 154.68 142.506 154.964 141.554 155.532C140.602 156.1 139.858 156.904 139.322 157.944C138.794 158.984 138.53 160.212 138.53 161.628C138.53 162.964 138.798 164.14 139.334 165.156C139.878 166.164 140.634 166.952 141.602 167.52C142.578 168.08 143.71 168.36 144.998 168.36ZM144.974 156.9C146.934 156.9 148.046 158.024 148.31 160.272H141.278C141.438 159.176 141.826 158.34 142.442 157.764C143.058 157.188 143.902 156.9 144.974 156.9ZM157.215 168H167.547V165.636H159.723V150.72H157.215V168ZM172.544 168.36C174.608 168.36 176.164 167.612 177.212 166.116V168H179.432V160.02C179.432 159.476 179.408 158.968 179.36 158.496C179.312 158.024 179.184 157.576 178.976 157.152C178.576 156.296 177.944 155.672 177.08 155.28C176.224 154.88 175.216 154.68 174.056 154.68C172.56 154.68 171.36 155.008 170.456 155.664C169.552 156.32 168.944 157.204 168.632 158.316L170.972 159.036C171.196 158.316 171.592 157.796 172.16 157.476C172.728 157.156 173.352 156.996 174.032 156.996C175.04 156.996 175.768 157.212 176.216 157.644C176.672 158.068 176.92 158.728 176.96 159.624C175.904 159.768 174.872 159.92 173.864 160.08C172.856 160.232 171.976 160.416 171.224 160.632C170.224 160.952 169.464 161.428 168.944 162.06C168.424 162.692 168.164 163.496 168.164 164.472C168.164 165.176 168.328 165.824 168.656 166.416C168.992 167 169.484 167.472 170.132 167.832C170.788 168.184 171.592 168.36 172.544 168.36ZM172.988 166.308C172.188 166.308 171.596 166.124 171.212 165.756C170.836 165.388 170.648 164.952 170.648 164.448C170.648 163.936 170.816 163.532 171.152 163.236C171.496 162.94 171.924 162.704 172.436 162.528C172.98 162.368 173.62 162.228 174.356 162.108C175.1 161.988 175.96 161.856 176.936 161.712C176.928 162.016 176.908 162.356 176.876 162.732C176.844 163.108 176.776 163.444 176.672 163.74C176.576 164.164 176.372 164.572 176.06 164.964C175.756 165.356 175.344 165.68 174.824 165.936C174.312 166.184 173.7 166.308 172.988 166.308ZM182.873 173.76H185.261L192.413 155.04H189.869L186.209 164.784L182.381 155.04H179.765L185.009 167.94L182.873 173.76ZM198.753 168.36C200.041 168.36 201.161 168.072 202.113 167.496C203.065 166.912 203.801 166.108 204.321 165.084C204.849 164.052 205.113 162.86 205.113 161.508C205.113 160.172 204.853 158.992 204.333 157.968C203.813 156.936 203.077 156.132 202.125 155.556C201.173 154.972 200.049 154.68 198.753 154.68C197.481 154.68 196.369 154.968 195.417 155.544C194.465 156.12 193.725 156.92 193.197 157.944C192.669 158.968 192.405 160.156 192.405 161.508C192.405 162.844 192.665 164.028 193.185 165.06C193.705 166.092 194.437 166.9 195.381 167.484C196.333 168.068 197.457 168.36 198.753 168.36ZM198.753 165.996C197.545 165.996 196.629 165.592 196.005 164.784C195.381 163.968 195.069 162.876 195.069 161.508C195.069 160.188 195.369 159.116 195.969 158.292C196.569 157.46 197.497 157.044 198.753 157.044C199.977 157.044 200.897 157.448 201.513 158.256C202.137 159.064 202.449 160.148 202.449 161.508C202.449 162.836 202.141 163.916 201.525 164.748C200.917 165.58 199.993 165.996 198.753 165.996ZM211.934 168.348C212.87 168.348 213.698 168.18 214.418 167.844C215.146 167.508 215.746 167.044 216.218 166.452V168H218.45V155.04H215.918V161.784C215.918 162.808 215.77 163.628 215.474 164.244C215.178 164.852 214.778 165.292 214.274 165.564C213.778 165.836 213.23 165.972 212.63 165.972C211.942 165.972 211.382 165.832 210.95 165.552C210.518 165.272 210.186 164.904 209.954 164.448C209.722 163.992 209.562 163.5 209.474 162.972C209.394 162.436 209.354 161.916 209.354 161.412V155.04H206.81V162.24C206.81 162.64 206.846 163.104 206.918 163.632C206.99 164.16 207.126 164.7 207.326 165.252C207.526 165.804 207.814 166.316 208.19 166.788C208.574 167.252 209.07 167.628 209.678 167.916C210.286 168.204 211.038 168.348 211.934 168.348ZM228.531 168V165.876C227.683 166.004 226.943 166.032 226.311 165.96C225.687 165.88 225.231 165.596 224.943 165.108C224.791 164.844 224.707 164.52 224.691 164.136C224.683 163.752 224.679 163.3 224.679 162.78V157.056H228.531V155.04H224.679V151.44H222.159V155.04H219.675V157.056H222.159V162.9C222.159 163.604 222.167 164.236 222.183 164.796C222.207 165.348 222.359 165.892 222.639 166.428C222.959 167.028 223.427 167.468 224.043 167.748C224.659 168.028 225.359 168.18 226.143 168.204C226.927 168.228 227.723 168.16 228.531 168Z" fill="black"/>
<path d="M128.3 103.8C128.1 103.715 127.885 103.669 127.667 103.667H121C120.558 103.667 120.134 103.842 119.822 104.155C119.509 104.467 119.333 104.891 119.333 105.333C119.333 105.775 119.509 106.199 119.822 106.512C120.134 106.824 120.558 107 121 107H123.65L114.817 115.817C114.661 115.972 114.537 116.156 114.452 116.359C114.367 116.562 114.324 116.78 114.324 117C114.324 117.22 114.367 117.438 114.452 117.641C114.537 117.844 114.661 118.028 114.817 118.183C114.972 118.34 115.156 118.464 115.359 118.548C115.562 118.633 115.78 118.676 116 118.676C116.22 118.676 116.438 118.633 116.641 118.548C116.844 118.464 117.028 118.34 117.183 118.183L126 109.35V112C126 112.442 126.176 112.866 126.488 113.179C126.801 113.491 127.225 113.667 127.667 113.667C128.109 113.667 128.533 113.491 128.845 113.179C129.158 112.866 129.333 112.442 129.333 112V105.333C129.331 105.116 129.285 104.9 129.2 104.7C129.031 104.293 128.707 103.969 128.3 103.8ZM127.667 90.3334C127.225 90.3334 126.801 90.509 126.488 90.8215C126.176 91.1341 126 91.558 126 92V94.65L117.183 85.8167C117.028 85.6613 116.844 85.538 116.64 85.4539C116.437 85.3698 116.22 85.3265 116 85.3265C115.78 85.3265 115.563 85.3698 115.36 85.4539C115.157 85.538 114.972 85.6613 114.817 85.8167C114.503 86.1305 114.327 86.5562 114.327 87C114.327 87.4439 114.503 87.8695 114.817 88.1834L123.65 97H121C120.558 97 120.134 97.1756 119.822 97.4882C119.509 97.8007 119.333 98.2247 119.333 98.6667C119.333 99.1087 119.509 99.5326 119.822 99.8452C120.134 100.158 120.558 100.333 121 100.333H127.667C127.885 100.331 128.1 100.285 128.3 100.2C128.707 100.031 129.031 99.7073 129.2 99.3C129.285 99.0997 129.331 98.8845 129.333 98.6667V92C129.333 91.558 129.158 91.1341 128.845 90.8215C128.533 90.509 128.109 90.3334 127.667 90.3334ZM133.7 100.2C133.9 100.285 134.116 100.331 134.333 100.333H141C141.442 100.333 141.866 100.158 142.179 99.8452C142.491 99.5326 142.667 99.1087 142.667 98.6667C142.667 98.2247 142.491 97.8007 142.179 97.4882C141.866 97.1756 141.442 97 141 97H138.35L147.183 88.1834C147.497 87.8695 147.674 87.4439 147.674 87C147.674 86.5562 147.497 86.1305 147.183 85.8167C146.87 85.5029 146.444 85.3265 146 85.3265C145.556 85.3265 145.131 85.5029 144.817 85.8167L136 94.65V92C136 91.558 135.824 91.1341 135.512 90.8215C135.199 90.509 134.775 90.3334 134.333 90.3334C133.891 90.3334 133.467 90.509 133.155 90.8215C132.842 91.1341 132.667 91.558 132.667 92V98.6667C132.669 98.8845 132.715 99.0997 132.8 99.3C132.969 99.7073 133.293 100.031 133.7 100.2ZM138.35 107H141C141.442 107 141.866 106.824 142.179 106.512C142.491 106.199 142.667 105.775 142.667 105.333C142.667 104.891 142.491 104.467 142.179 104.155C141.866 103.842 141.442 103.667 141 103.667H134.333C134.116 103.669 133.9 103.715 133.7 103.8C133.293 103.969 132.969 104.293 132.8 104.7C132.715 104.9 132.669 105.116 132.667 105.333V112C132.667 112.442 132.842 112.866 133.155 113.179C133.467 113.491 133.891 113.667 134.333 113.667C134.775 113.667 135.199 113.491 135.512 113.179C135.824 112.866 136 112.442 136 112V109.35L144.817 118.183C144.972 118.34 145.156 118.464 145.359 118.548C145.562 118.633 145.78 118.676 146 118.676C146.22 118.676 146.438 118.633 146.641 118.548C146.844 118.464 147.028 118.34 147.183 118.183C147.34 118.028 147.464 117.844 147.548 117.641C147.633 117.438 147.676 117.22 147.676 117C147.676 116.78 147.633 116.562 147.548 116.359C147.464 116.156 147.34 115.972 147.183 115.817L138.35 107Z" fill="black"/>
</svg>
