<svg width="255" height="255" viewBox="0 0 255 255" fill="none" xmlns="http://www.w3.org/2000/svg">
<rect width="255" height="255" rx="10" fill="#F9F9F9"/>
<path d="M43.267 168.36C44.995 168.36 46.467 167.98 47.683 167.22C48.899 166.46 49.827 165.408 50.467 164.064C51.107 162.712 51.427 161.144 51.427 159.36C51.427 157.576 51.107 156.012 50.467 154.668C49.827 153.316 48.899 152.26 47.683 151.5C46.467 150.74 44.995 150.36 43.267 150.36C41.539 150.36 40.067 150.74 38.851 151.5C37.635 152.26 36.703 153.316 36.055 154.668C35.415 156.012 35.095 157.576 35.095 159.36C35.095 161.144 35.415 162.712 36.055 164.064C36.703 165.408 37.635 166.46 38.851 167.22C40.067 167.98 41.539 168.36 43.267 168.36ZM43.267 165.972C41.435 165.956 40.055 165.344 39.127 164.136C38.207 162.928 37.751 161.336 37.759 159.36C37.767 158.04 37.971 156.884 38.371 155.892C38.779 154.892 39.391 154.116 40.207 153.564C41.023 153.004 42.043 152.732 43.267 152.748C45.107 152.756 46.483 153.364 47.395 154.572C48.307 155.78 48.763 157.376 48.763 159.36C48.763 160.68 48.559 161.84 48.151 162.84C47.751 163.832 47.143 164.604 46.327 165.156C45.511 165.708 44.491 165.98 43.267 165.972ZM53.1206 168H55.6526V161.46C55.6526 160.7 55.7726 159.996 56.0126 159.348C56.2526 158.7 56.6766 158.18 57.2846 157.788C57.7166 157.508 58.1926 157.344 58.7126 157.296C59.2326 157.248 59.7006 157.28 60.1166 157.392V155.04C59.5326 154.928 58.9126 154.932 58.2566 155.052C57.6086 155.172 57.0406 155.412 56.5526 155.772C56.0726 156.092 55.6726 156.536 55.3526 157.104V155.04H53.1206V168ZM66.3811 168.36C67.1171 168.36 67.7811 168.248 68.3731 168.024C68.9651 167.808 69.4891 167.5 69.9451 167.1V168.324C69.9611 169.436 69.6731 170.276 69.0811 170.844C68.4971 171.42 67.6691 171.708 66.5971 171.708C66.0211 171.708 65.4731 171.58 64.9531 171.324C64.4331 171.068 64.0331 170.664 63.7531 170.112L61.4371 171.288C61.9651 172.208 62.6931 172.908 63.6211 173.388C64.5491 173.876 65.5331 174.12 66.5731 174.12C68.0851 174.12 69.3491 173.804 70.3651 173.172C71.3811 172.548 72.0251 171.58 72.2971 170.268C72.3611 169.964 72.4051 169.652 72.4291 169.332C72.4531 169.02 72.4651 168.692 72.4651 168.348V155.04H70.2451V156.204C69.7811 155.724 69.2291 155.352 68.5891 155.088C67.9491 154.816 67.2291 154.68 66.4291 154.68C65.2131 154.68 64.1611 154.98 63.2731 155.58C62.3931 156.172 61.7131 156.984 61.2331 158.016C60.7531 159.04 60.5131 160.204 60.5131 161.508C60.5131 162.804 60.7491 163.968 61.2211 165C61.7011 166.032 62.3811 166.852 63.2611 167.46C64.1411 168.06 65.1811 168.36 66.3811 168.36ZM66.7291 166.092C65.9291 166.092 65.2651 165.888 64.7371 165.48C64.2091 165.072 63.8171 164.524 63.5611 163.836C63.3051 163.14 63.1771 162.364 63.1771 161.508C63.1771 160.66 63.3051 159.892 63.5611 159.204C63.8251 158.516 64.2251 157.968 64.7611 157.56C65.2971 157.152 65.9811 156.948 66.8131 156.948C67.9971 156.948 68.8651 157.372 69.4171 158.22C69.9691 159.068 70.2451 160.164 70.2451 161.508C70.2451 162.852 69.9691 163.952 69.4171 164.808C68.8651 165.664 67.9691 166.092 66.7291 166.092ZM78.7947 168.36C80.8587 168.36 82.4147 167.612 83.4627 166.116V168H85.6827V160.02C85.6827 159.476 85.6587 158.968 85.6107 158.496C85.5627 158.024 85.4347 157.576 85.2267 157.152C84.8267 156.296 84.1947 155.672 83.3307 155.28C82.4747 154.88 81.4667 154.68 80.3067 154.68C78.8107 154.68 77.6107 155.008 76.7067 155.664C75.8027 156.32 75.1947 157.204 74.8827 158.316L77.2227 159.036C77.4467 158.316 77.8427 157.796 78.4107 157.476C78.9787 157.156 79.6027 156.996 80.2827 156.996C81.2907 156.996 82.0187 157.212 82.4667 157.644C82.9227 158.068 83.1707 158.728 83.2107 159.624C82.1547 159.768 81.1227 159.92 80.1147 160.08C79.1067 160.232 78.2267 160.416 77.4747 160.632C76.4747 160.952 75.7147 161.428 75.1947 162.06C74.6747 162.692 74.4147 163.496 74.4147 164.472C74.4147 165.176 74.5787 165.824 74.9067 166.416C75.2427 167 75.7347 167.472 76.3827 167.832C77.0387 168.184 77.8427 168.36 78.7947 168.36ZM79.2387 166.308C78.4387 166.308 77.8467 166.124 77.4627 165.756C77.0867 165.388 76.8987 164.952 76.8987 164.448C76.8987 163.936 77.0667 163.532 77.4027 163.236C77.7467 162.94 78.1747 162.704 78.6867 162.528C79.2307 162.368 79.8707 162.228 80.6067 162.108C81.3507 161.988 82.2107 161.856 83.1867 161.712C83.1787 162.016 83.1587 162.356 83.1267 162.732C83.0947 163.108 83.0267 163.444 82.9227 163.74C82.8267 164.164 82.6227 164.572 82.3107 164.964C82.0067 165.356 81.5947 165.68 81.0747 165.936C80.5627 166.184 79.9507 166.308 79.2387 166.308ZM88.0868 168H90.6308V161.256C90.6308 160.232 90.7788 159.416 91.0748 158.808C91.3788 158.192 91.7788 157.748 92.2748 157.476C92.7708 157.204 93.3188 157.068 93.9188 157.068C94.6068 157.068 95.1668 157.208 95.5988 157.488C96.0308 157.768 96.3628 158.136 96.5948 158.592C96.8268 159.048 96.9828 159.544 97.0628 160.08C97.1508 160.608 97.1948 161.124 97.1948 161.628V168H99.7388V160.8C99.7388 160.4 99.7028 159.936 99.6308 159.408C99.5588 158.88 99.4228 158.34 99.2228 157.788C99.0228 157.236 98.7308 156.728 98.3468 156.264C97.9708 155.792 97.4788 155.412 96.8708 155.124C96.2628 154.836 95.5108 154.692 94.6148 154.692C93.6788 154.692 92.8468 154.86 92.1188 155.196C91.3988 155.532 90.8028 155.996 90.3308 156.588V155.04H88.0868V168ZM102.404 152.916H104.912V150.48H102.404V152.916ZM102.404 168H104.912V155.04H102.404V168ZM106.616 168H117.596V165.756H110.612L117.956 155.448V155.04H107.288V157.284H113.972L106.616 167.604V168ZM124.676 168.36C125.932 168.36 127.072 168.044 128.096 167.412C129.12 166.772 129.884 165.872 130.388 164.712L127.928 163.932C127.272 165.308 126.148 165.996 124.556 165.996C123.468 165.996 122.612 165.668 121.988 165.012C121.364 164.356 121 163.428 120.896 162.228H130.556C130.644 160.676 130.46 159.336 130.004 158.208C129.548 157.08 128.856 156.212 127.928 155.604C127 154.988 125.876 154.68 124.556 154.68C123.292 154.68 122.184 154.964 121.232 155.532C120.28 156.1 119.536 156.904 119 157.944C118.472 158.984 118.208 160.212 118.208 161.628C118.208 162.964 118.476 164.14 119.012 165.156C119.556 166.164 120.312 166.952 121.28 167.52C122.256 168.08 123.388 168.36 124.676 168.36ZM124.652 156.9C126.612 156.9 127.724 158.024 127.988 160.272H120.956C121.116 159.176 121.504 158.34 122.12 157.764C122.736 157.188 123.58 156.9 124.652 156.9ZM137.697 168.36C138.513 168.36 139.241 168.224 139.881 167.952C140.529 167.68 141.089 167.3 141.561 166.812V168H143.793V150.72H141.273V155.928C140.825 155.528 140.305 155.22 139.713 155.004C139.121 154.788 138.465 154.68 137.745 154.68C136.529 154.68 135.477 154.98 134.589 155.58C133.709 156.172 133.029 156.984 132.549 158.016C132.069 159.04 131.829 160.204 131.829 161.508C131.829 162.804 132.065 163.968 132.537 165C133.017 166.032 133.697 166.852 134.577 167.46C135.457 168.06 136.497 168.36 137.697 168.36ZM138.045 166.092C137.245 166.092 136.581 165.888 136.053 165.48C135.525 165.072 135.133 164.524 134.877 163.836C134.621 163.14 134.493 162.364 134.493 161.508C134.493 160.66 134.621 159.892 134.877 159.204C135.141 158.516 135.541 157.968 136.077 157.56C136.613 157.152 137.297 156.948 138.129 156.948C139.313 156.948 140.181 157.372 140.733 158.22C141.285 159.068 141.561 160.164 141.561 161.508C141.561 162.852 141.285 163.952 140.733 164.808C140.181 165.664 139.285 166.092 138.045 166.092ZM150.795 168H161.127V165.636H153.303V150.72H150.795V168ZM166.124 168.36C168.188 168.36 169.744 167.612 170.792 166.116V168H173.012V160.02C173.012 159.476 172.988 158.968 172.94 158.496C172.892 158.024 172.764 157.576 172.556 157.152C172.156 156.296 171.524 155.672 170.66 155.28C169.804 154.88 168.796 154.68 167.636 154.68C166.14 154.68 164.94 155.008 164.036 155.664C163.132 156.32 162.524 157.204 162.212 158.316L164.552 159.036C164.776 158.316 165.172 157.796 165.74 157.476C166.308 157.156 166.932 156.996 167.612 156.996C168.62 156.996 169.348 157.212 169.796 157.644C170.252 158.068 170.5 158.728 170.54 159.624C169.484 159.768 168.452 159.92 167.444 160.08C166.436 160.232 165.556 160.416 164.804 160.632C163.804 160.952 163.044 161.428 162.524 162.06C162.004 162.692 161.744 163.496 161.744 164.472C161.744 165.176 161.908 165.824 162.236 166.416C162.572 167 163.064 167.472 163.712 167.832C164.368 168.184 165.172 168.36 166.124 168.36ZM166.568 166.308C165.768 166.308 165.176 166.124 164.792 165.756C164.416 165.388 164.228 164.952 164.228 164.448C164.228 163.936 164.396 163.532 164.732 163.236C165.076 162.94 165.504 162.704 166.016 162.528C166.56 162.368 167.2 162.228 167.936 162.108C168.68 161.988 169.54 161.856 170.516 161.712C170.508 162.016 170.488 162.356 170.456 162.732C170.424 163.108 170.356 163.444 170.252 163.74C170.156 164.164 169.952 164.572 169.64 164.964C169.336 165.356 168.924 165.68 168.404 165.936C167.892 166.184 167.28 166.308 166.568 166.308ZM176.454 173.76H178.842L185.994 155.04H183.45L179.79 164.784L175.962 155.04H173.346L178.59 167.94L176.454 173.76ZM192.453 168.36C193.709 168.36 194.849 168.044 195.873 167.412C196.897 166.772 197.661 165.872 198.165 164.712L195.705 163.932C195.049 165.308 193.925 165.996 192.333 165.996C191.245 165.996 190.389 165.668 189.765 165.012C189.141 164.356 188.777 163.428 188.673 162.228H198.333C198.421 160.676 198.237 159.336 197.781 158.208C197.325 157.08 196.633 156.212 195.705 155.604C194.777 154.988 193.653 154.68 192.333 154.68C191.069 154.68 189.961 154.964 189.009 155.532C188.057 156.1 187.313 156.904 186.777 157.944C186.249 158.984 185.985 160.212 185.985 161.628C185.985 162.964 186.253 164.14 186.789 165.156C187.333 166.164 188.089 166.952 189.057 167.52C190.033 168.08 191.165 168.36 192.453 168.36ZM192.429 156.9C194.389 156.9 195.501 158.024 195.765 160.272H188.733C188.893 159.176 189.281 158.34 189.897 157.764C190.513 157.188 191.357 156.9 192.429 156.9ZM200.325 168H202.857V161.46C202.857 160.7 202.977 159.996 203.217 159.348C203.457 158.7 203.881 158.18 204.489 157.788C204.921 157.508 205.397 157.344 205.917 157.296C206.437 157.248 206.905 157.28 207.321 157.392V155.04C206.737 154.928 206.117 154.932 205.461 155.052C204.813 155.172 204.245 155.412 203.757 155.772C203.277 156.092 202.877 156.536 202.557 157.104V155.04H200.325V168ZM213.394 168.348C215.034 168.348 216.318 167.984 217.246 167.256C218.182 166.528 218.65 165.524 218.65 164.244C218.65 163.572 218.51 163.004 218.23 162.54C217.958 162.076 217.502 161.676 216.862 161.34C216.222 160.996 215.358 160.684 214.27 160.404C213.254 160.148 212.486 159.928 211.966 159.744C211.454 159.552 211.106 159.36 210.922 159.168C210.738 158.968 210.646 158.724 210.646 158.436C210.646 157.94 210.882 157.552 211.354 157.272C211.826 156.984 212.442 156.856 213.202 156.888C213.994 156.92 214.638 157.12 215.134 157.488C215.63 157.848 215.922 158.336 216.01 158.952L218.578 158.484C218.434 157.332 217.87 156.412 216.886 155.724C215.902 155.028 214.666 154.68 213.178 154.68C211.658 154.68 210.438 155.036 209.518 155.748C208.598 156.452 208.138 157.392 208.138 158.568C208.138 159.2 208.274 159.74 208.546 160.188C208.826 160.628 209.29 161.012 209.938 161.34C210.594 161.668 211.478 161.98 212.59 162.276C213.606 162.548 214.362 162.776 214.858 162.96C215.354 163.144 215.678 163.34 215.83 163.548C215.99 163.748 216.07 164.012 216.07 164.34C216.07 164.9 215.846 165.34 215.398 165.66C214.958 165.98 214.346 166.14 213.562 166.14C212.698 166.14 211.974 165.948 211.39 165.564C210.814 165.18 210.446 164.648 210.286 163.968L207.718 164.364C207.942 165.628 208.55 166.608 209.542 167.304C210.534 168 211.818 168.348 213.394 168.348Z" fill="black"/>
<path d="M108.792 99.24L126.042 109.207C126.333 109.375 126.663 109.463 127 109.463C127.336 109.463 127.667 109.375 127.958 109.207L145.208 99.24C145.499 99.0715 145.74 98.8297 145.907 98.5387C146.075 98.2478 146.163 97.9179 146.163 97.5821C146.163 97.2463 146.075 96.9164 145.907 96.6255C145.74 96.3345 145.499 96.0927 145.208 95.9242L127.958 85.9575C127.667 85.7893 127.336 85.7007 127 85.7007C126.663 85.7007 126.333 85.7893 126.042 85.9575L108.792 95.9242C108.501 96.0927 108.26 96.3345 108.092 96.6255C107.925 96.9164 107.837 97.2463 107.837 97.5821C107.837 97.9179 107.925 98.2478 108.092 98.5387C108.26 98.8297 108.501 99.0715 108.792 99.24ZM127 89.8292L140.417 97.4959L127 105.258L113.583 97.5725L127 89.8292ZM143.292 104.76L127 114.171L110.708 104.76C110.491 104.633 110.25 104.549 110 104.515C109.75 104.481 109.496 104.496 109.252 104.56C109.008 104.624 108.779 104.736 108.579 104.888C108.378 105.041 108.209 105.232 108.082 105.45C107.956 105.669 107.873 105.91 107.841 106.161C107.808 106.412 107.825 106.666 107.891 106.911C107.956 107.155 108.07 107.383 108.225 107.583C108.379 107.783 108.572 107.951 108.792 108.076L126.042 118.043C126.333 118.211 126.663 118.299 127 118.299C127.336 118.299 127.667 118.211 127.958 118.043L145.208 108.076C145.428 107.951 145.621 107.783 145.775 107.583C145.93 107.383 146.043 107.155 146.109 106.911C146.175 106.666 146.192 106.412 146.159 106.161C146.126 105.91 146.044 105.669 145.917 105.45C145.791 105.232 145.622 105.041 145.421 104.888C145.221 104.736 144.992 104.624 144.748 104.56C144.504 104.496 144.25 104.481 144 104.515C143.75 104.549 143.509 104.633 143.292 104.76Z" fill="black"/>
</svg>
